<svg width="64" height="65" viewBox="0 0 64 65" fill="none" xmlns="http://www.w3.org/2000/svg">
<path d="M46.6505 63.4468C39.9677 61.7541 33.4906 58.2846 30.6505 54.8763C28.6259 52.4467 28.1737 51.2288 28.1607 48.1712C28.1491 45.4573 28.1634 45.3979 28.8392 45.3063C29.8008 45.176 30.0191 45.6573 30.0242 47.9191C30.0278 49.5483 30.1788 50.172 30.9074 51.5694C33.0298 55.6396 39.4853 59.6089 47.0429 61.4907C50.2491 62.289 51.4769 62.3338 52.6079 61.6935C53.788 61.0255 54.32 59.7627 54.32 57.6294C54.32 55.9326 54.3783 55.7676 55.1778 55.2011L56.0357 54.5933L55.1778 53.4754C53.9515 51.8774 54.0468 51.4363 55.7659 50.7516C56.5612 50.4349 57.2118 50.0249 57.2118 49.8404C57.2118 49.656 56.9516 48.7801 56.6335 47.8941C55.9432 45.9714 55.9576 46.2258 56.5095 45.6968C56.8497 45.3708 57.5678 45.2613 59.3654 45.2613H61.7668L59.4893 39.453C58.2367 36.2584 57.2118 33.3851 57.2118 33.0679C57.2118 32.7507 57.4942 31.9661 57.8393 31.3244C58.2891 30.4879 58.4905 29.5496 58.5506 28.0099L58.6343 25.8621H54.0308V27.5221C54.0308 29.0021 53.8354 29.5578 52.2287 32.649L50.4267 36.116H31.033L23.0882 43.7443V47.5326C23.0882 51.0491 23.1288 51.3332 23.6539 51.4929C23.965 51.5875 24.5645 52.0578 24.9861 52.538C25.6553 53.3002 25.7365 53.5978 25.6255 54.881C25.4777 56.5886 24.6899 57.5884 23.1764 57.9889C20.66 58.6548 18.1069 56.4423 18.5833 54.0085C18.7096 53.3636 19.1492 52.7371 19.9177 52.1067L21.0639 51.1665V42.8992L30.1797 34.176H34.6555V28.8006L30.8961 25.4376V21.2355C30.8961 17.785 30.9774 16.9556 31.3506 16.598C31.7056 16.2578 32.4647 16.1625 34.8199 16.1625H37.8349L38.9201 17.0997C39.9153 17.9592 40.1254 18.0261 41.4513 17.9064C43.277 17.7416 44.6948 18.5621 45.3246 20.1479C45.6936 21.0768 45.6949 21.3615 45.3349 22.3515C44.398 24.9282 41.2725 25.5329 39.3395 23.5115C38.4476 22.5788 38.3728 22.3664 38.462 21.0194C38.607 18.8293 38.074 18.3795 35.3337 18.3795H33.2096V24.9074L36.6798 27.8347V34.176H38.7041V31.5251C38.7041 27.639 38.4948 27.802 43.4858 27.802H47.6688V18.8705L46.4845 17.8629C45.5092 17.0332 45.275 16.6352 45.1576 15.6082C44.8685 13.0792 47.4256 11.1434 49.8767 12.0358C50.5274 12.2728 51.236 12.8101 51.5727 13.322C52.1112 14.1406 52.2658 14.2019 53.8139 14.2119C54.7285 14.2178 55.4767 14.1256 55.4767 14.0071C55.4767 13.8886 55.2614 13.4833 54.9983 13.1064C52.3892 9.36929 49.3965 6.86328 45.2551 4.9477C41.2756 3.10704 38.7944 2.57003 33.4265 2.3876L28.8719 2.2328V8.8345L32.5022 12.2826H35.2636C37.7714 12.2826 38.0823 12.2241 38.65 11.645C39.1709 11.1137 39.2311 10.8603 39.0114 10.1261C38.3614 7.95426 40.0359 5.9086 42.4635 5.9086C45.9485 5.9086 47.3678 9.89394 44.6204 11.965C43.5624 12.7626 42.663 12.9578 41.6325 12.6135C40.8748 12.3604 40.6966 12.4263 39.8356 13.2775L38.8798 14.2226H31.6064L26.8476 9.6383V5.4405C26.8476 3.13171 26.9266 1.04543 27.0231 0.80433C27.1726 0.431095 27.8544 0.365967 31.6122 0.365967C34.1986 0.365967 37.029 0.534356 38.4493 0.772734C47.3537 2.26718 54.335 7.12613 57.9054 14.314C59.8925 18.3146 60.685 22.0868 60.6792 27.5176C60.6762 29.7499 60.5645 30.388 59.9519 31.6491L59.2274 33.1407L61.5452 39.0655C62.82 42.3241 63.863 45.1592 63.863 45.3656C63.863 45.572 63.5933 46.0694 63.2637 46.471C62.7192 47.1343 62.4808 47.2012 60.661 47.2012C59.5592 47.2012 58.6577 47.3064 58.6577 47.435C58.6577 47.5635 58.9124 48.378 59.2236 49.2449C59.5348 50.1118 59.7166 51.0031 59.6274 51.2257C59.5383 51.4482 58.9584 51.7759 58.3386 51.9538C57.0692 52.3183 56.9799 52.5825 57.7902 53.5753C58.6118 54.5819 58.4902 55.2809 57.3564 56.0694C56.4162 56.7233 56.3597 56.8548 56.3522 58.4069C56.3418 60.5476 55.5021 62.2361 53.9621 63.2128C52.3452 64.2382 50.0632 64.3112 46.6505 63.4468ZM23.3196 55.7369C23.5104 55.554 23.6666 55.0801 23.6666 54.6838C23.6666 53.7541 23.174 53.2981 22.1695 53.2981C21.632 53.2981 21.2098 53.5272 20.8928 53.991C20.454 54.6328 20.454 54.7348 20.8928 55.3766C21.4089 56.1315 22.7068 56.3242 23.3196 55.7369ZM50.4131 31.6874C51.6515 29.3244 51.7173 29.0805 51.7173 26.8574C51.7173 23.7163 51.8021 23.645 55.5372 23.645H58.4482L58.269 22.1838C58.1704 21.3801 57.7946 19.7277 57.4339 18.5118L56.7781 16.301L54.5505 16.2203C52.3307 16.1399 52.3213 16.1425 51.8706 16.9778C51.6219 17.4387 51.0302 18.0083 50.5557 18.2434L49.6931 18.6709V23.8739C49.6931 27.5511 49.5913 29.1743 49.346 29.4094C49.1097 29.6359 47.7266 29.7419 45.0083 29.7419H41.0176V34.176H49.1089L50.4131 31.6874ZM43.0419 22.2594C43.36 21.9545 43.6202 21.518 43.6202 21.2894C43.6202 20.7007 42.568 19.7652 41.9058 19.7652C40.5181 19.7652 39.9363 21.6132 41.0819 22.3822C41.9314 22.9524 42.3458 22.9264 43.0419 22.2594ZM49.7426 16.2581C50.994 15.1728 49.6378 13.2246 48.0987 13.8967C47.1521 14.31 46.8659 15.4654 47.5347 16.1736C48.1615 16.8373 49.0361 16.8708 49.7426 16.2581ZM43.2667 10.4656C43.9748 9.99028 44.1376 8.73231 43.5624 8.18108C43.3715 7.99818 42.877 7.84852 42.4635 7.84852C41.496 7.84852 41.0176 8.32017 41.0176 9.27389C41.0176 9.93229 41.877 10.897 42.4635 10.897C42.5518 10.897 42.9132 10.7028 43.2667 10.4656ZM12.8567 50.5171C10.0312 49.707 9.359 46.2747 11.6786 44.501L12.6776 43.7371L12.6776 35.5043L9.78582 32.1877V21.2063L3.42379 16.1565V7.1061L2.70017 6.79013C1.78763 6.39168 0.823638 4.90073 0.822223 3.88563C0.819567 1.9727 2.50255 0.365967 4.50895 0.365967C5.63625 0.365967 5.95647 0.510839 6.96456 1.47692C8.07134 2.53758 8.11748 2.65107 7.98383 3.98406C7.87944 5.02518 7.63575 5.58839 7.02562 6.19869C6.57561 6.64883 6.03656 7.01713 5.82774 7.01713C5.5313 7.01713 5.44807 7.9216 5.44807 11.1429V15.2686L7.45692 16.8241C8.56179 17.6796 9.53779 18.3795 9.6258 18.3795C9.71381 18.3795 9.78582 15.9006 9.78582 12.8708C9.78582 8.43544 9.86628 7.29813 10.1988 7.03365C10.6781 6.65243 10.8605 6.73079 15.7864 9.43463L19.0397 11.2204L19.0414 12.7907C19.0431 14.2357 19.1107 14.3979 19.8885 14.822C21.9455 15.9435 22.1823 18.6522 20.363 20.25C18.0423 22.2881 14.4101 20.7738 14.4137 17.7697C14.4152 16.6327 15.333 15.1453 16.2916 14.7267C16.8702 14.4741 17.0153 14.2091 17.0153 13.405C17.0153 12.4289 16.9384 12.357 14.4126 10.9721L11.81 9.54499V31.4456L14.991 35.039L14.991 43.7371L15.9901 44.501C17.1854 45.415 17.6667 46.7857 17.2727 48.1534C16.9943 49.1194 15.5565 50.5268 14.8478 50.5268C14.6345 50.5268 14.2866 50.5784 14.0748 50.6413C13.863 50.7043 13.3149 50.6484 12.8567 50.5171ZM14.9333 48.2543C15.1241 48.0714 15.2803 47.5975 15.2803 47.2012C15.2803 46.2854 14.7901 45.8156 13.8344 45.8156C13.4208 45.8156 12.9263 45.9652 12.7355 46.1481C12.2881 46.5768 12.2881 47.8256 12.7355 48.2543C12.9263 48.4372 13.4208 48.5869 13.8344 48.5869C14.2479 48.5869 14.7424 48.4372 14.9333 48.2543ZM19.0892 18.7523C19.3801 18.5 19.618 18.0635 19.618 17.7823C19.618 17.1668 18.6319 16.1625 18.0275 16.1625C17.4132 16.1625 16.437 17.1709 16.437 17.8055C16.437 19.0461 18.0758 19.6311 19.0892 18.7523ZM5.4976 4.89569C6.15526 4.32531 6.17571 3.47757 5.54784 2.81269C4.89714 2.12364 3.84159 2.17478 3.2956 2.92182C2.70064 3.73584 2.72775 4.13304 3.42379 4.80007C4.12747 5.47443 4.7948 5.5052 5.4976 4.89569ZM1.53799 42.6781C-0.201671 41.011 0.0267682 38.4235 2.01288 37.2992L2.84542 36.8279V30.1386L2.01288 29.6673C0.0267682 28.5429 -0.201671 25.9555 1.53799 24.2883C2.31716 23.5416 2.72486 23.3679 3.69841 23.3679C6.04787 23.3679 7.47235 24.7145 7.47235 26.9356C7.47235 28.1281 6.47823 29.5672 5.43537 29.8844C4.91411 30.0429 4.8697 30.3255 4.8697 33.4832C4.8697 36.641 4.91411 36.9235 5.43537 37.0821C6.47823 37.3993 7.47235 38.8384 7.47235 40.0308C7.47235 42.2548 6.10386 43.5985 3.83882 43.5985C2.70624 43.5985 2.34949 43.4558 1.53799 42.6781ZM4.99364 41.2231C6.1089 40.1543 4.80925 38.1767 3.44981 38.8739C2.45288 39.3852 2.15571 40.2074 2.68695 40.9843C3.21915 41.7627 4.31244 41.8759 4.99364 41.2231ZM4.80536 27.9249C5.63037 27.3711 5.67941 26.0002 4.88872 25.5947C3.97863 25.1279 3.17802 25.2638 2.69751 25.9666C2.33252 26.5005 2.31147 26.7608 2.58655 27.3394C2.87809 27.9526 3.15454 28.1438 4.01011 28.3241C4.094 28.3418 4.45187 28.1621 4.80536 27.9249ZM17.2082 41.4738C17.1021 41.3722 17.0154 39.006 17.0154 36.2155V31.1418L16.1527 30.7143C13.5753 29.437 14.0046 25.5387 16.8364 24.5058C19.2821 23.6138 21.8397 25.5523 21.5509 28.0791C21.4335 29.1061 21.1992 29.5041 20.224 30.3338L19.0397 31.3415V38.1867L26.8476 30.7196V16.343L22.799 12.3417V7.7308C22.799 3.7176 22.8604 3.09734 23.2721 2.94592C23.5323 2.85023 23.9553 2.89871 24.212 3.05365C24.5996 3.28757 24.6924 4.0097 24.7593 7.31123L24.8399 11.2871L28.8719 15.272V31.8033L23.73 36.731C18.8978 41.3617 17.8707 42.1087 17.2082 41.4738ZM19.0892 28.729C19.3801 28.4768 19.618 28.0403 19.618 27.7591C19.618 27.1436 18.6319 26.1392 18.0275 26.1392C17.4132 26.1392 16.437 27.1476 16.437 27.7822C16.437 29.0228 18.0758 29.6079 19.0892 28.729Z" fill="white"/>
</svg>
