<svg width="70" height="72" viewBox="0 0 70 72" fill="none" xmlns="http://www.w3.org/2000/svg">
<path d="M31.8055 71.3343C25.0536 70.6147 19.1083 68.2556 13.8118 64.1942C12.182 62.9444 9.43244 60.2494 7.98704 58.4849C4.01132 53.6316 1.32005 47.4744 0.321593 40.9476C-0.107198 38.1447 -0.107198 33.2701 0.321593 30.4672C1.25109 24.3912 3.49336 18.9561 7.0776 14.091C8.30257 12.4282 10.9442 9.62308 12.6737 8.14847C17.4309 4.0924 23.4661 1.34673 29.8636 0.328093C32.611 -0.109364 37.389 -0.109364 40.1364 0.328093C43.9604 0.936975 47.1099 1.94972 50.4777 3.65347C54.3508 5.61283 57.1941 7.74455 60.2801 11.0027C65.3581 16.3641 68.524 22.9207 69.6784 30.4672C70.1072 33.2701 70.1072 38.1447 69.6784 40.9476C69.0816 44.8489 68.0889 48.062 66.4189 51.4979C61.826 60.9475 53.5409 67.7994 43.5899 70.378C41.0346 71.0401 38.6781 71.3473 35.6849 71.4085C34.2158 71.4385 32.4701 71.4051 31.8055 71.3343ZM32.9454 59.5807V52.4318L30.1718 52.5221C27.8164 52.5988 22.4095 52.9956 22.2934 53.1003C22.2107 53.1748 23.3021 55.8709 24.0502 57.4402C25.8855 61.2902 28.4076 64.3706 30.9594 65.8787C31.494 66.1947 32.6375 66.7067 32.8427 66.7219C32.8992 66.7261 32.9454 63.5125 32.9454 59.5807ZM38.5902 66.0962C39.8863 65.4367 40.7857 64.7221 42.0916 63.3142C43.4573 61.8419 44.8715 59.6975 45.9169 57.5135C46.7147 55.8471 47.7456 53.2865 47.6577 53.1897C47.5507 53.0719 42.1913 52.6336 39.6913 52.5383L37.0546 52.4377V66.7484L37.3628 66.6562C37.5323 66.6055 38.0846 66.3535 38.5902 66.0962ZM23.3076 64.2624C21.6885 62.1213 19.9437 58.7552 18.7555 55.4805C18.393 54.4814 18.0937 53.6544 18.0903 53.6427C18.0506 53.5064 10.7561 55.1355 10.7561 55.2807C10.7561 55.4523 12.7394 57.6904 13.7526 58.6621C15.8829 60.7053 18.405 62.5244 20.8772 63.801C22.3005 64.5359 23.806 65.1986 23.881 65.1234C23.9053 65.099 23.6472 64.7115 23.3076 64.2624ZM48.9954 63.8635C51.5573 62.5518 54.0807 60.7417 56.2461 58.6621C57.6039 57.3582 59.1558 55.5411 59.0166 55.4181C58.7616 55.1928 52.0293 53.6343 51.9039 53.7715C51.8877 53.7892 51.5841 54.5897 51.2291 55.5504C50.0215 58.8185 48.284 62.1576 46.7023 64.2494C46.3681 64.6914 46.0947 65.0835 46.0947 65.1207C46.0947 65.2393 47.4857 64.6364 48.9954 63.8635ZM62.1329 50.9041C63.4186 48.472 64.416 45.8531 65.0493 43.246C65.44 41.6379 65.8185 39.2352 65.8185 38.3634V37.8035H54.505L54.339 40.1441C54.1351 43.0203 53.869 45.0922 53.37 47.69C53.1597 48.7853 52.9975 49.6813 53.0097 49.6813C53.5289 49.6813 59.4983 51.1027 60.8875 51.5571C61.2265 51.668 61.5415 51.7629 61.5875 51.7681C61.6335 51.7732 61.8789 51.3844 62.1329 50.9041ZM9.50863 51.2242C10.6375 50.8828 14.3003 50.0477 15.7369 49.8041C16.3293 49.7037 16.8415 49.5483 16.8751 49.4589C16.9087 49.3695 16.7809 48.4834 16.591 47.4898C16.1261 45.0572 15.8601 42.9479 15.6646 40.1441L15.5015 37.8035H4.18153V38.3634C4.18153 39.967 4.9388 43.6315 5.77916 46.0946C6.66066 48.6783 8.02253 51.4979 8.38891 51.4979C8.50697 51.4979 9.01084 51.3748 9.50863 51.2242ZM49.226 47.5154C49.7916 44.7437 50.1226 42.2125 50.2876 39.3958L50.381 37.8035H37.0546V48.2398L39.5543 48.329C41.9304 48.4138 45.9481 48.718 47.8753 48.959C48.3649 49.0202 48.805 49.0349 48.8532 48.9916C48.9014 48.9482 49.0691 48.2839 49.226 47.5154ZM24.7957 48.6301C26.0763 48.5158 28.434 48.3811 30.0348 48.3309L32.9454 48.2394V37.8035H19.6593V38.4797C19.6593 40.3901 20.185 44.6344 20.7843 47.5632L21.0801 49.0083L21.7736 48.9231C22.1551 48.8762 23.515 48.7444 24.7957 48.6301ZM15.6024 31.8995C15.7718 28.792 16.2844 24.8427 16.8325 22.4222C16.9364 21.9634 16.9832 21.5646 16.9364 21.536C16.8896 21.5074 16.1733 21.3475 15.3447 21.1806C13.3691 20.7827 11.2974 20.2821 9.82926 19.8479C9.17788 19.6553 8.59899 19.4976 8.54284 19.4976C8.24607 19.4976 6.52237 23.1238 5.78089 25.308C4.94825 27.7608 4.18153 31.4729 4.18153 33.0514V33.6113H15.509L15.6024 31.8995ZM32.9454 23.0172L31.6785 22.9382C30.9816 22.8948 29.641 22.8234 28.6993 22.7795C27.1059 22.7053 23.3663 22.3943 21.7748 22.2036L21.0825 22.1206L20.7847 23.569C20.2157 26.3369 19.6608 30.8934 19.6597 32.8078L19.6592 33.6113H32.9454L32.9454 23.0172ZM50.2899 31.8442C50.1715 29.585 49.7486 26.2248 49.3123 24.0761C49.1246 23.1519 48.971 22.3634 48.971 22.3239C48.971 22.2844 48.4934 22.2929 47.9095 22.3427C44.7041 22.6163 41.3782 22.8432 39.3488 22.9266L37.0546 23.0209V33.6113H50.3825L50.2899 31.8442ZM65.7747 32.5283C65.505 29.0694 64.3778 25.0917 62.6761 21.5937C61.6252 19.4336 61.9173 19.588 59.9313 20.1424C58.9958 20.4036 57.087 20.8449 55.6895 21.1232C54.292 21.4014 53.1258 21.6497 53.0978 21.6749C53.0698 21.7002 53.2053 22.5883 53.3989 23.6486C54.0044 26.9648 54.4499 30.8418 54.4499 32.7953V33.6113H65.8591L65.7747 32.5283ZM32.9454 4.41818L32.4185 4.60786C29.9215 5.50667 27.1812 8.11216 25.2591 11.4152C24.2818 13.0946 22.1334 17.8979 22.297 18.0375C22.4466 18.1653 28.7354 18.6246 32.4318 18.7777L32.9454 18.7989V4.41818ZM44.3485 18.419C46.0625 18.291 47.5247 18.1486 47.5977 18.1025C47.862 17.9359 46.0027 13.5836 44.7409 11.4152C42.8188 8.11216 40.0785 5.50667 37.5815 4.60786L37.0546 4.41818V18.813L39.1434 18.7324C40.2922 18.6881 42.6345 18.547 44.3485 18.419ZM54.039 17.1882C56.303 16.7591 58.861 16.1504 59.0166 16.0036C59.0799 15.9438 58.7041 15.4007 58.1814 14.7967C55.6105 11.8258 52.4001 9.2947 49.0077 7.56395C47.3581 6.7224 46.4874 6.33412 46.415 6.4079C46.3884 6.43509 46.6922 6.92326 47.0901 7.49272C48.7746 9.9032 50.2239 12.795 51.3734 16.0391C51.6661 16.8653 51.9696 17.5407 52.0477 17.54C52.1259 17.5393 53.022 17.3809 54.039 17.1882ZM18.2183 17.157C18.2705 17.0225 18.5164 16.3465 18.7646 15.6548C19.8347 12.6731 21.284 9.81938 22.9099 7.49272C23.3078 6.92326 23.6116 6.43509 23.585 6.4079C23.5126 6.33412 22.6419 6.7224 20.9923 7.56395C18.3954 8.88884 15.8686 10.7077 13.6845 12.8243C12.4149 14.0547 10.9677 15.7076 11.0693 15.8113C11.2526 15.9983 17.0442 17.3482 17.8297 17.387C17.9916 17.395 18.1659 17.2919 18.2183 17.157Z" fill="#F5F5F5"/>
</svg>
