<svg width="86" height="74" viewBox="0 0 86 74" fill="none" xmlns="http://www.w3.org/2000/svg">
<path d="M6.98054 73.033C4.63575 72.4655 2.15939 70.4917 1.07193 68.3237C0.432551 67.0489 0.00733661 65.2551 0.00298533 63.8142L0 62.8264H33.6709L33.6716 63.986C33.6723 65.3268 34.0209 66.0616 34.9149 66.6067C35.4506 66.9333 35.7934 66.9481 42.8617 66.9484C51.0977 66.9488 51.0378 66.9567 51.8343 65.7644C52.145 65.2993 52.2242 64.9413 52.2242 64.0035V62.8264H85.8951L85.8919 63.8142C85.8903 64.3575 85.7748 65.3431 85.6353 66.0045C84.9133 69.4285 82.1853 72.2514 78.8355 73.0411C77.2283 73.4199 8.54714 73.4122 6.98054 73.033ZM7.21519 37.7666C7.21519 13.8694 7.1664 15.0983 8.16737 13.7859C8.41493 13.4613 9.0129 12.9987 9.49618 12.7579L10.3749 12.32H40.7373L40.1292 13.0622C39.7947 13.4703 39.3242 14.2343 39.0835 14.76L38.646 15.7157L24.9008 15.7326C16.8254 15.7425 11.0338 15.8152 10.8604 15.9087C10.698 15.9962 10.3718 16.2745 10.1356 16.527L9.70615 16.9861V51.8615L10.6702 52.6907H75.0988L76.1031 51.6864V34.5631C76.1031 19.0705 76.0763 17.3834 75.8222 16.8479C75.3007 15.749 75.3776 15.7586 66.9997 15.7364C62.8331 15.7253 59.4468 15.6671 59.4747 15.6072C59.5025 15.5472 60.2645 14.7831 61.168 13.9091L62.8107 12.32H75.0838L75.9264 12.747C76.3898 12.9818 76.9646 13.4305 77.2038 13.7441C78.2254 15.0835 78.1646 13.5696 78.1646 37.6536V59.7341H7.21519V37.7666ZM13.0904 49.3924C12.7929 49.0949 12.7929 30.3463 13.0904 30.0488C13.2364 29.9028 14.2548 29.8426 16.5778 29.8426C18.9007 29.8426 19.9192 29.9028 20.0651 30.0488C20.3369 30.3206 20.364 48.7606 20.0934 49.2662C19.927 49.5771 19.7023 49.5985 16.6061 49.5985C14.2611 49.5985 13.2365 49.5384 13.0904 49.3924ZM24.2285 49.2662C23.9579 48.7606 23.985 30.3206 24.2568 30.0488C24.4027 29.9028 25.4211 29.8426 27.7441 29.8426C30.0671 29.8426 31.0855 29.9028 31.2315 30.0488C31.5289 30.3463 31.5289 49.0949 31.2315 49.3924C31.0854 49.5384 30.0608 49.5985 27.7158 49.5985C24.6196 49.5985 24.3948 49.5771 24.2285 49.2662ZM34.8846 31.6599C34.7724 31.5247 34.7047 31.0799 34.7341 30.6713L34.7875 29.9285L73.0281 29.8411L72.925 31.8182L54.0068 31.8619C37.7713 31.8994 35.0596 31.8708 34.8846 31.6599ZM13.0904 26.0289C12.7993 25.7378 12.7993 19.1736 13.0904 18.8824C13.2463 18.7265 15.8827 18.6763 23.9032 18.6763H34.5099L34.0925 19.4064C33.5431 20.3673 33.5165 21.8565 34.0299 22.917C34.4825 23.8519 35.2592 24.4939 37.1067 25.4601L38.5669 26.2237L25.9317 26.2294C16.327 26.2337 13.2471 26.1856 13.0904 26.0289ZM53.0709 24.2574C55.318 22.0576 55.9779 21.0555 56.1264 19.6173L56.2235 18.6763L64.4024 18.6789C68.9008 18.6803 72.6796 18.7439 72.7997 18.8201C72.9674 18.9265 73.0072 19.7924 72.9715 22.5539L72.9249 26.1492L51.048 26.2376L53.0709 24.2574ZM43.2911 23.735C41.8684 23.4299 40.4122 22.906 38.9964 22.1897C37.0523 21.2062 37.0294 21.1498 38.5274 21.0365C41.0258 20.8475 41.7485 20.218 42.0696 17.951C42.2575 16.6242 42.7586 15.5702 43.4281 15.0935L43.9164 14.7458L50.5474 21.3833L50.1824 21.8765C49.6264 22.6281 48.3026 23.4442 47.1633 23.7379C45.9286 24.0561 44.7846 24.0553 43.2911 23.735ZM48.1253 17.0683L44.8027 13.7424L45.3189 13.3748C45.9243 12.9437 47.0167 12.8862 47.5101 13.2594C47.6935 13.3981 47.9613 13.5141 48.1051 13.5171C48.2489 13.5201 49.0308 12.6915 49.8426 11.6758C52.7803 8.00018 59.4591 1.17146 60.5706 0.707051C61.3216 0.393256 62.2164 0.401974 63.0033 0.730751C63.8552 1.08669 64.2383 1.45297 64.6136 2.27031C65.0147 3.1438 65.0142 3.97576 64.612 4.84716C64.1885 5.76474 57.174 12.6664 54.0682 15.2212L51.7034 17.1666L52.0497 17.727C52.4982 18.4527 52.4942 19.3641 52.04 19.9415C51.8441 20.1905 51.6308 20.3942 51.5658 20.3942C51.5009 20.3942 49.9527 18.8975 48.1253 17.0683Z" fill="white"/>
</svg>
