<svg width="80" height="80" viewBox="0 0 80 80" fill="none" xmlns="http://www.w3.org/2000/svg">
<path d="M7.33738 79.7317C4.7543 78.8522 2.92115 77.147 1.58623 74.3819C0.285118 71.6869 -0.120494 69.3801 0.0296241 65.529C0.584756 51.2878 10.1105 32.9097 19.1821 28.578C20.4173 27.9881 20.9057 27.9033 22.977 27.919C25.8724 27.941 27.8205 28.4962 31.7991 30.4333C34.6661 31.8292 36.8738 32.6194 37.9066 32.6194C38.5294 32.6194 38.6066 32.4198 38.8564 30.1629C38.936 29.4433 39.2644 28.0657 39.5862 27.1016C41.8382 20.3527 45.7998 16.7189 55.3824 12.6124C57.3092 11.7867 59.6739 10.77 60.6373 10.3532C62.828 9.40532 65.5269 7.81768 66.6376 6.82344C67.7832 5.79797 68.7699 3.71722 68.7699 2.32676C68.7699 1.4889 68.9203 1.06392 69.3841 0.591055C70.166 -0.206052 70.6342 -0.19862 71.4408 0.623705C72.0278 1.2222 72.0725 1.40864 71.9283 2.65934C71.6221 5.31518 70.8735 6.80623 68.7967 8.89627C66.7232 10.9831 64.3324 12.352 59.0108 14.4994C47.8326 19.0101 43.5857 22.87 42.2017 29.7767C41.8728 31.4181 41.8006 32.2683 41.975 32.4461C42.371 32.8498 44.9554 32.015 48.1737 30.4436C52.1584 28.498 54.1077 27.9411 57.0089 27.919C59.0802 27.9033 59.5686 27.9881 60.8038 28.578C67.0335 31.5527 73.8179 41.3676 77.5088 52.745C79.6466 59.3348 80.5263 66.5696 79.6837 70.6313C78.8558 74.6215 76.5918 77.9373 73.7752 79.2844C72.548 79.8713 72.099 79.9414 69.6457 79.9289C67.3992 79.9174 66.4561 79.7843 64.5159 79.205C60.1468 77.9004 57.1334 76.1059 50.6222 70.9312C45.3186 66.7161 42.7428 65.4014 39.8678 65.4418C37.0582 65.4812 34.614 66.7586 29.3637 70.9312C22.9031 76.0657 19.8358 77.9 15.5951 79.1652C12.8535 79.9831 8.87692 80.2559 7.33738 79.7317ZM13.3814 76.3729C17.0216 75.6689 20.1226 74.0274 25.0402 70.2011C26.7269 68.8888 28.9026 67.1953 29.8752 66.4378C33.5739 63.557 36.7764 62.2125 39.9396 62.2125C43.8952 62.2125 46.444 63.465 52.7962 68.5305C57.1659 72.0151 59.5176 73.6112 62.081 74.8325C65.8752 76.6401 70.5061 77.2714 72.6589 76.2745C76.8503 74.3335 77.9399 66.5632 75.382 56.8551C72.9523 47.6334 67.5729 37.9315 62.3965 33.4356C58.8626 30.3663 55.6096 30.348 49.4529 33.3631C45.1798 35.4557 43.8531 35.7971 39.993 35.7971C36.1315 35.7971 34.8155 35.458 30.5419 33.3616C25.7512 31.0117 22.5228 30.5345 19.963 31.7978C14.5031 34.4924 7.40429 46.0693 4.59644 56.8578C2.83439 63.6281 2.77747 69.8207 4.44666 73.1564C6.12469 76.5097 8.4135 77.3337 13.3814 76.3729ZM58.3758 61.9348C56.5006 61.3944 55.5394 59.134 56.4328 57.3654C57.7206 54.8157 61.4882 55.2572 62.2436 58.0463C62.879 60.3926 60.6836 62.5999 58.3758 61.9348ZM19.3492 58.5872C19.2852 58.4063 19.2026 57.2825 19.1656 56.0898L19.0984 53.9213L14.4691 53.7746V49.2209L19.0984 49.0742L19.3486 44.227L23.9596 44.0806L24.1031 49.0742L28.7324 49.2209V53.7746L24.1031 53.9213L23.8528 58.7685L21.6592 58.8423C20.0428 58.8966 19.4349 58.8295 19.3492 58.5872ZM51.3453 55.0903C50.1767 54.3638 49.7521 53.5884 49.7521 52.1808C49.7521 51.1059 49.8679 50.8185 50.6029 50.0691C51.3487 49.3088 51.6117 49.2017 52.7336 49.2017C53.8287 49.2017 54.1415 49.3214 54.901 50.031C56.5248 51.5481 56.2721 53.8747 54.3519 55.087C53.3637 55.7109 52.3454 55.712 51.3453 55.0903ZM64.1072 55.0903C63.676 54.8222 63.1411 54.3379 62.9186 54.014C62.0156 52.6997 62.7493 49.9961 64.157 49.4505C65.0418 49.1075 66.527 49.1542 67.221 49.5469C68.6868 50.3761 69.1849 52.4589 68.2796 53.9727C67.358 55.5136 65.562 55.9946 64.1072 55.0903ZM57.4838 48.3643C56.2766 47.5375 55.7863 46.042 56.2847 44.7069C57.5271 41.3791 62.3055 42.2091 62.3055 45.7527C62.3055 48.3862 59.631 49.8349 57.4838 48.3643Z" fill="white"/>
</svg>
