<svg width="82" height="82" viewBox="0 0 82 82" fill="none" xmlns="http://www.w3.org/2000/svg">
<path d="M28.3382 73.5356C28.0417 73.4497 27.774 73.0536 27.774 72.7009C27.774 72.4713 27.9752 72.1424 28.1945 72.0135L28.3932 71.8966L31.198 71.8848L34.0028 71.8729L34.1334 71.5309C34.5875 70.3418 34.823 69.0464 34.8239 67.7326C34.8247 66.375 34.6384 65.2792 34.183 63.964C34.0875 63.6883 34.0094 63.4432 34.0094 63.4195C34.0094 63.3907 35.7796 63.3763 39.3479 63.3763C42.9162 63.3763 44.6865 63.3906 44.6865 63.4195C44.6865 63.4432 44.6085 63.6883 44.5133 63.964C44.3001 64.5812 44.1206 65.2791 43.9945 65.9816C43.9109 66.4468 43.8985 66.6637 43.8975 67.6685C43.8967 68.5874 43.9122 68.9171 43.9741 69.2914C44.1011 70.0586 44.3279 70.9117 44.5844 71.587L44.6939 71.8753H47.4131C49.0474 71.8753 50.1901 71.8919 50.2772 71.9168C50.9741 72.1167 51.1306 73.0175 50.5407 73.4342L50.3593 73.5623L39.419 73.5693C32.5954 73.5736 28.4258 73.561 28.3382 73.5356ZM7.47195 61.6639C6.41017 61.5519 5.49023 61.0897 4.722 60.2822C4.177 59.7094 3.85342 59.1158 3.62982 58.2786L3.53699 57.931V38.3706V18.8102L3.65443 18.3841C4.092 16.7966 5.24424 15.6549 6.87925 15.1888L7.2099 15.0946L20.5456 15.0834L33.8813 15.0723V24.3801C33.8813 30.8237 33.8955 33.7901 33.9275 34.0202C34.1725 35.782 35.5677 37.4764 37.9149 38.8628C38.7977 39.3842 40.2876 40.0467 41.4833 40.4494C44.1417 41.3447 47.1075 41.878 50.48 42.0672C51.5239 42.1257 54.8853 42.0992 55.7906 42.0252C59.0673 41.7574 61.9412 41.1924 64.2928 40.3535C68.317 38.918 70.7767 36.9185 71.473 34.5166L71.5691 34.1852L71.5816 24.6719C71.5929 16.0166 71.6001 15.1586 71.6618 15.1586C71.6991 15.1586 71.8998 15.2157 72.1079 15.2854C73.5846 15.7801 74.6266 16.8847 75.0453 18.3994L75.1589 18.8102V38.3065C75.1589 59.3678 75.1735 58.004 74.9397 58.694C74.4716 60.0751 73.2533 61.2025 71.849 61.5543C71.6963 61.5926 71.3888 61.6431 71.1656 61.6665C70.6652 61.7192 7.97134 61.7166 7.47195 61.6639ZM19.3643 55.0434C19.8058 54.9487 20.1187 54.4583 20.005 54.039C19.9369 53.788 19.7684 53.5725 19.562 53.4726L19.3762 53.3826L14.2326 53.3836C9.33476 53.3844 9.08082 53.3883 8.91647 53.463C8.19029 53.7928 8.31954 54.8983 9.10208 55.0505C9.37663 55.1039 19.1136 55.0971 19.3643 55.0434ZM49.0641 54.9986C49.348 54.8414 49.5552 54.5204 49.5552 54.2375C49.5552 53.8981 49.3686 53.6038 49.0641 53.4633C48.8993 53.3872 48.4599 53.3844 36.5812 53.3835C26.203 53.3827 24.2476 53.3918 24.1317 53.4416C23.9642 53.5134 23.7381 53.7455 23.6766 53.9085C23.6517 53.9747 23.6313 54.1246 23.6313 54.2417C23.6313 54.6512 23.8744 54.9485 24.2932 55.0512C24.3637 55.0685 29.9371 55.0797 36.6787 55.0761C48.0139 55.07 48.9456 55.0642 49.0641 54.9986ZM59.5805 55.0522C60.3847 54.8966 60.5263 53.7993 59.7856 53.4629C59.6248 53.3898 59.4512 53.3845 57.2427 53.3845C55.0343 53.3845 54.8606 53.3898 54.6998 53.4629C53.9645 53.7969 54.0982 54.8957 54.8931 55.0517C55.1077 55.0937 59.3633 55.0942 59.5805 55.0522ZM70.1673 54.9753C70.7803 54.6474 70.7917 53.8006 70.1873 53.4819L69.9991 53.3826H67.6063C65.2552 53.3826 65.2102 53.3842 65.0263 53.4732C64.6935 53.6343 64.4966 54.0638 64.5916 54.4212C64.6777 54.7447 64.9094 54.9665 65.2505 55.0518C65.321 55.0695 66.4165 55.0807 67.6849 55.0767C69.9746 55.0696 69.9924 55.0689 70.1673 54.9753ZM33.3957 48.7182C33.9745 48.4013 33.9601 47.5343 33.371 47.2337C33.2058 47.1495 33.1292 47.1472 30.473 47.1472H27.7447L27.5565 47.2466C27.2924 47.386 27.1211 47.6707 27.1211 47.9702C27.1211 48.4095 27.3921 48.7389 27.8117 48.8097C27.8912 48.8232 29.1501 48.8245 30.6091 48.8128C33.009 48.7935 33.2747 48.7845 33.3957 48.7182ZM70.1631 48.7093C70.5213 48.4745 70.6682 48.0252 70.5102 47.6476C70.4316 47.4599 70.1336 47.2002 69.9617 47.1694C69.8839 47.1555 65.7717 47.1497 60.8235 47.1564L51.8267 47.1685L51.6626 47.3007C51.3385 47.5617 51.219 47.9664 51.3638 48.3123C51.4481 48.5138 51.7405 48.7602 51.9337 48.7925C52.0231 48.8075 52.1108 48.823 52.1284 48.827C52.146 48.831 56.1828 48.8246 61.099 48.8128C69.8295 48.792 70.0406 48.7895 70.1631 48.7093ZM23.4043 48.7674C23.6956 48.6573 23.9306 48.3009 23.9295 47.971C23.9287 47.7214 23.8036 47.4857 23.5739 47.3007L23.4098 47.1685H16.1787H8.94752L8.7834 47.3007C8.35671 47.6444 8.31064 48.1845 8.67493 48.5724C8.91157 48.8244 8.43789 48.8093 16.1652 48.8111C21.095 48.8122 23.321 48.7988 23.4043 48.7674ZM47.7032 48.7049C48.2572 48.3802 48.2439 47.5444 47.68 47.2466L47.4918 47.1472H44.7635C42.1398 47.1472 42.0289 47.1504 41.8714 47.2307C41.3869 47.4779 41.2527 48.1051 41.5969 48.5141C41.6576 48.5862 41.777 48.6821 41.8622 48.7271C42.0102 48.8053 42.141 48.8091 44.7681 48.8109L47.5191 48.8128L47.7032 48.7049ZM19.0681 41.2915C19.2385 41.2059 19.3645 41.0669 19.4397 40.8815C19.4663 40.8159 20.1703 38.2158 21.0042 35.1034C21.9933 31.4114 22.5204 29.3735 22.5206 29.24C22.5211 28.8576 22.2728 28.5448 21.8873 28.4422C21.5689 28.3575 21.1857 28.5012 21.0063 28.7727C20.929 28.8896 20.5302 30.3153 19.5101 34.1211C18.7451 36.9751 18.0502 39.5657 17.9658 39.878C17.7913 40.5239 17.7881 40.772 17.9515 41.0104C18.2122 41.3909 18.6507 41.5013 19.0681 41.2915ZM15.0587 40.5675C15.2494 40.5146 15.4934 40.3117 15.5898 40.126C15.6797 39.9528 15.6788 39.5627 15.5882 39.3881C15.4962 39.2107 15.4685 39.1871 12.6808 36.9069C11.3677 35.8327 10.2926 34.935 10.2916 34.9119C10.2908 34.8888 11.4171 33.9466 12.7947 32.8183C14.1723 31.6899 15.3584 30.7102 15.4305 30.6412C15.6661 30.4154 15.7331 29.9814 15.5789 29.6795C15.4549 29.4367 15.1029 29.2097 14.8504 29.2097C14.5383 29.2097 14.4145 29.3017 11.3237 31.8323C7.98742 34.5639 8.0615 34.4938 8.06688 34.9112C8.07238 35.3381 7.9843 35.2548 11.2814 37.9532C12.9611 39.3279 14.4138 40.4882 14.5097 40.5318C14.7098 40.6227 14.8316 40.6306 15.0587 40.5675ZM25.8397 40.5293C26.0802 40.4201 32.0585 35.5234 32.1684 35.3456C32.341 35.0664 32.3232 34.6538 32.128 34.4056C31.9879 34.2276 25.9902 29.3376 25.8296 29.2705C25.5025 29.1338 25.0982 29.2551 24.8528 29.5636C24.7476 29.6959 24.721 29.7744 24.707 29.9942C24.6764 30.4761 24.5773 30.3776 27.4732 32.7429C28.9046 33.912 30.0705 34.8877 30.0641 34.9112C30.0578 34.9347 28.9105 35.8894 27.5146 37.0328C26.1187 38.1762 24.9198 39.1811 24.8504 39.2659C24.7471 39.3921 24.721 39.4691 24.707 39.689C24.6807 40.1025 24.8779 40.4216 25.2394 40.5505C25.4653 40.631 25.6283 40.6252 25.8397 40.5293ZM14.5472 23.3616C15.3347 23.1788 15.4572 22.1044 14.7283 21.7733C14.5666 21.6998 14.3831 21.6949 11.8224 21.6949C9.26175 21.6949 9.07817 21.6998 8.91647 21.7733C8.1925 22.1021 8.30709 23.1748 9.08611 23.3612C9.27452 23.4063 14.3532 23.4067 14.5472 23.3616ZM29.5571 23.3515C29.9777 23.2455 30.2789 22.7528 30.1696 22.3494C30.1015 22.0984 29.933 21.8829 29.7266 21.783C29.5408 21.693 29.5387 21.693 24.5023 21.693H19.4639L19.2739 21.7891C18.8937 21.9814 18.7165 22.4306 18.8662 22.8226C18.9484 23.0378 19.2157 23.3011 19.3914 23.3399C19.4566 23.3543 19.5291 23.3725 19.5526 23.3803C19.5761 23.3882 21.7922 23.3961 24.4772 23.398C28.0671 23.4004 29.4115 23.3881 29.5571 23.3515ZM51.0073 40.3997C47.4373 40.2382 44.1646 39.6467 41.5436 38.6893C38.2728 37.4945 36.1097 35.7994 35.672 34.088C35.5943 33.7842 35.5896 33.5883 35.5896 30.6549C35.5896 28.9439 35.6017 27.544 35.6164 27.544C35.6312 27.544 35.7713 27.6648 35.9278 27.8124C36.4882 28.3411 37.4439 29.0065 38.3443 29.495C42.9921 32.0164 50.4464 33.0789 57.6043 32.2401C62.6663 31.647 66.9152 30.1053 69.399 27.9604C69.6642 27.7314 69.8915 27.544 69.9041 27.544C69.9501 27.544 69.9279 33.4255 69.8807 33.7657C69.7766 34.5151 69.3556 35.2523 68.6046 36.0003C66.5234 38.0728 62.2129 39.6469 57.0932 40.2039C55.4037 40.3876 52.6786 40.4754 51.0073 40.3997ZM51.3063 30.807C48.5364 30.6947 46.2027 30.3783 43.9177 29.8051C39.8369 28.7814 36.8268 27.0063 35.8938 25.0732C35.5814 24.4261 35.586 24.4886 35.5992 21.0146L35.6109 17.9233L35.9526 18.2337C39.7972 21.7266 48.3325 23.5559 56.8583 22.7143C62.3414 22.173 66.9293 20.5575 69.5138 18.258C69.7137 18.0802 69.8894 17.9347 69.9042 17.9347C69.919 17.9347 69.9252 19.3617 69.918 21.1058L69.9049 24.2768L69.7889 24.6185C69.1414 26.5272 66.7207 28.2266 62.9476 29.4215C60.7984 30.1021 58.292 30.5406 55.3635 30.7482C54.7287 30.7932 51.9569 30.8334 51.3063 30.807ZM50.8578 21.1768C48.077 21.0406 45.4201 20.6273 43.1837 19.9828C38.0444 18.5019 35.1293 16.0495 35.6573 13.6509C35.7426 13.2633 36.0341 12.6593 36.3134 12.2915C36.5967 11.9183 37.3658 11.1865 37.8067 10.8705C41.6202 8.13748 48.9832 6.73611 56.2177 7.36643C60.0244 7.69809 63.41 8.56332 65.9979 9.86588C68.5187 11.1346 69.9027 12.6795 69.8978 14.219C69.8891 16.9788 65.479 19.6199 59.0601 20.7095C56.5601 21.1339 53.5186 21.3072 50.8578 21.1768Z" fill="#EBEBEB"/>
</svg>
