<svg width="75" height="73" viewBox="0 0 75 73" fill="none" xmlns="http://www.w3.org/2000/svg">
<path d="M6.08128 72.0528C4.82734 71.5743 3.98974 70.8231 3.49163 69.7303C3.33981 69.3972 3.1747 68.61 3.12472 67.981L3.03383 66.8373H2.30838C1.38955 66.8373 0.673034 66.5096 0.295384 65.9166C0.0125408 65.4725 0 65.2189 0 59.945C0 53.9064 0.0173425 53.7733 0.867565 53.2859C1.14154 53.1288 1.60503 53.0432 2.18192 53.0432H3.07305L3.15054 5.75939L3.46374 5.10205C3.88994 4.20755 4.67023 3.40295 5.52008 2.98167C6.20807 2.64062 6.32957 2.62964 9.87404 2.58821C13.4704 2.54618 13.525 2.54992 13.8672 2.86186C14.2888 3.24627 14.3162 3.82778 13.9342 4.28601C13.6576 4.6179 13.6145 4.62254 10.1609 4.69284C6.31634 4.77108 6.25319 4.78508 5.66998 5.68829L5.3486 6.18601V52.9721L6.22782 53.0101C7.28487 53.0557 7.683 53.2341 8.06454 53.8332C8.33819 54.2629 8.35258 54.5657 8.35205 59.886C8.35157 65.1145 8.33323 65.5154 8.07628 65.9244C7.71396 66.501 6.9495 66.8373 6.00131 66.8373H5.23295L5.32241 67.7671C5.42966 68.8817 5.72318 69.4115 6.45438 69.8103L7.00041 70.1081H39.0743C69.8323 70.1081 71.1692 70.0975 71.6588 69.8487C71.9761 69.6875 72.2943 69.353 72.4991 68.9653L72.8288 68.3413V6.45958L72.4991 5.8356C71.9114 4.7234 71.7646 4.69284 67.0063 4.69284H62.8643V5.55314C62.8643 6.04399 62.7689 6.59259 62.642 6.8306C62.1758 7.7055 62.5134 7.67918 51.7565 7.67918H41.9529L41.455 7.35429C40.8836 6.98145 40.611 6.34906 40.599 5.36832L40.5907 4.69284H37.0738V5.55969C37.0738 6.53855 36.8168 7.08659 36.1888 7.4466C35.614 7.7761 30.6852 7.78961 30.0353 7.46347C29.4349 7.16217 29.1608 6.56506 29.1608 5.55826V4.70308L18.584 4.62173L18.304 4.28601C17.9729 3.88895 17.9417 3.2923 18.2319 2.90687C18.4293 2.64476 18.7084 2.62725 23.7637 2.55973L29.0876 2.48862L29.132 1.73925C29.1697 1.10231 29.2529 0.915614 29.6864 0.494939L30.1964 0H32.983C36.5774 0 36.8861 0.134336 37.0683 1.77759L37.1471 2.48862L40.5907 2.56875L40.5915 2.17317C40.5929 1.44659 40.888 0.732896 41.3389 0.364659L41.7854 0H61.8287L62.3387 0.494939C62.7722 0.915614 62.8554 1.10231 62.8931 1.73925L62.9375 2.48862L67.4069 2.55973C72.4108 2.63934 72.4411 2.64485 73.6092 3.6898C73.9677 4.01042 74.4167 4.60724 74.6072 5.01607L74.9535 5.75939V69.0415L74.6148 69.7678C74.2183 70.6178 73.4609 71.372 72.5357 71.838L71.8763 72.1701L39.1985 72.1953C14.3887 72.2145 6.41504 72.1801 6.08128 72.0528ZM6.1585 55.1763H2.19805V59.8455C2.19805 62.4135 2.24389 64.5591 2.29991 64.6135C2.35593 64.6678 3.22966 64.6945 4.24152 64.6727L6.08128 64.6331L6.1585 55.1763ZM34.8758 2.13311H31.3589V5.54608H34.8758V2.13311ZM60.6663 2.13311H42.9353V5.54608H60.6663V2.13311ZM13.591 67.9228C12.2991 67.4553 11.2802 66.2728 10.9865 64.8998C10.5685 62.9459 11.8099 60.9385 13.8318 60.2987C14.6119 60.0519 16.1889 60.1782 16.925 60.5464C18.6669 61.4179 19.5515 63.4456 18.9972 65.2961C18.718 66.2281 17.8282 67.2785 16.9438 67.7201C16.1754 68.1037 14.3894 68.2117 13.591 67.9228ZM15.874 65.7902C16.5287 65.5247 16.9074 64.9183 16.9074 64.1354C16.9074 62.9635 15.9602 62.1746 14.7433 62.333C13.8302 62.4518 13.1883 63.1905 13.1883 64.1224C13.1883 65.5378 14.4951 66.3493 15.874 65.7902ZM23.8846 67.9927C23.1204 67.7497 22.5809 67.3944 21.9945 66.7478C19.7921 64.3197 21.3865 60.4463 24.6945 60.1886C25.8959 60.095 26.7238 60.3201 27.6341 60.9878C29.9587 62.6929 29.703 66.1936 27.1476 67.6469C26.6172 67.9485 26.2603 68.0328 25.368 68.0668C24.7541 68.0903 24.0866 68.0569 23.8846 67.9927ZM25.9946 65.7685C26.6172 65.4817 26.9628 64.8776 26.9628 64.0758C26.9628 62.7538 25.5405 61.9161 24.2808 62.4962C23.58 62.8189 23.2437 63.3505 23.2437 64.1354C23.2437 65.5613 24.6419 66.3914 25.9946 65.7685ZM32.4915 66.3752C31.8691 65.9185 31.9427 64.8805 32.6186 64.5816C32.8463 64.4809 33.9258 64.4198 35.4755 64.4198C37.9248 64.4198 37.9724 64.4256 38.3261 64.7689C38.7656 65.1954 38.7849 65.6812 38.382 66.1782L38.0783 66.5529H35.406C33.4951 66.5529 32.6647 66.5023 32.4915 66.3752ZM42.8381 66.3429C42.247 65.9411 42.2891 65.0741 42.9226 64.6021C43.1012 64.4691 46.1069 64.4278 55.8738 64.4243L68.5926 64.4198L68.9523 64.7689C69.1501 64.9608 69.312 65.2837 69.312 65.4864C69.312 65.689 69.1501 66.0119 68.9523 66.2038L68.5926 66.5529H55.8698C44.8872 66.5529 43.1048 66.5242 42.8381 66.3429ZM32.4736 60.118C31.9436 59.6559 31.9084 59.0515 32.3847 58.5893C32.6745 58.308 32.8731 58.3049 50.6911 58.3049H68.7045L69.0082 58.6796C69.5022 59.289 69.3883 59.8923 68.7153 60.23C68.3582 60.4092 65.8449 60.438 50.5707 60.438H32.8406L32.4736 60.118ZM13.6878 58.3384C11.7463 57.6646 10.5905 55.6943 11.0036 53.7629C11.6844 50.5804 15.6808 49.4371 18.0039 51.7603C18.6902 52.4465 19.1963 53.6249 19.1963 54.5364C19.1963 55.9961 18.1195 57.6017 16.7447 58.1918C15.7965 58.5989 14.6032 58.6561 13.6878 58.3384ZM15.6069 56.314C15.9751 56.314 16.6962 55.5862 16.8445 55.065C17.246 53.654 16.0397 52.4418 14.5539 52.7632C13.6988 52.9482 13.1883 53.6214 13.1883 54.5644C13.1883 55.1823 13.2595 55.3914 13.5934 55.754C13.9819 56.176 14.8047 56.4886 15.2152 56.3703C15.3225 56.3393 15.4988 56.314 15.6069 56.314ZM23.9109 58.3868C22.6013 57.9726 21.6511 57.0593 21.1806 55.7628C20.5139 53.9257 21.5308 51.7041 23.423 50.8638C24.3763 50.4404 25.9082 50.4489 26.8309 50.8825C28.349 51.5959 29.2097 52.9196 29.2097 54.5411C29.2097 55.736 28.8723 56.5425 28.0228 57.3785C26.9941 58.3907 25.2642 58.8149 23.9109 58.3868ZM26.1914 56.0814C27.1004 55.5322 27.2899 54.113 26.5598 53.3223C25.5536 52.2327 23.7128 52.6397 23.2979 54.0436C22.8181 55.6672 24.6923 56.9871 26.1914 56.0814ZM32.8762 54.2247C32.0739 54.0724 31.77 53.0077 32.3643 52.431L32.6858 52.1189L50.3028 52.0768C62.3022 52.0481 68.0895 52.0823 68.4519 52.184C69.1523 52.3807 69.4752 53.0325 69.1505 53.594C69.0329 53.7972 68.7739 54.0434 68.5748 54.1412C68.2908 54.2807 64.4466 54.3152 50.7018 54.3016C41.0706 54.2921 33.0491 54.2575 32.8762 54.2247ZM37.8798 48.927C36.9434 48.5551 36.6837 47.3104 37.415 46.6999C38.3091 45.9536 39.7115 46.5015 39.7115 47.597C39.7115 48.2337 39.5077 48.5827 38.9817 48.8467C38.5075 49.0847 38.3125 49.0989 37.8798 48.927ZM62.4247 48.9039C61.5191 48.5591 61.278 47.543 61.9249 46.797C62.2407 46.4327 62.4102 46.3595 62.9376 46.3595C63.4649 46.3595 63.6345 46.4327 63.9503 46.797C64.6092 47.5569 64.3481 48.5943 63.4189 48.9086C62.8939 49.0862 62.9036 49.0863 62.4247 48.9039ZM49.676 48.5425C46.1074 48.1713 43.3806 46.9254 41.0682 44.6095C38.2631 41.8001 36.8717 37.8457 37.362 34.0765C38.0432 28.8401 41.7234 24.6346 46.9723 23.0947C48.132 22.7544 48.5384 22.7082 50.482 22.6959C52.1911 22.6851 52.9245 22.7419 53.779 22.9514C58.6054 24.1342 62.3078 27.6711 63.6198 32.3521C64.0595 33.921 64.0909 36.988 63.683 38.5349C62.606 42.6191 60.0763 45.6068 56.2043 47.3677C54.3353 48.2176 51.4848 48.7306 49.676 48.5425ZM53.9224 45.9348C58.0917 44.5536 60.8357 41.5267 61.6328 37.4296C62.5823 32.55 59.6216 27.4033 54.8048 25.5601C53.1348 24.9211 52.6038 24.8276 50.6285 24.8253C48.9569 24.8234 48.5709 24.8703 47.478 25.2087C45.8101 25.7251 44.313 26.5582 43.1414 27.6218C40.7162 29.8234 39.5579 32.3808 39.5449 35.563C39.5372 37.4236 39.817 38.6072 40.6684 40.3157C42.0921 43.1726 44.695 45.2411 47.9176 46.0765C49.4454 46.4726 52.518 46.4001 53.9224 45.9348ZM47.6245 45.4462C46.5119 45.2472 46.1472 45.0772 45.7309 44.5636C45.1912 43.8978 45.3156 43.2103 46.2512 41.6887C46.7049 40.951 47.2275 39.9723 47.4126 39.5139C47.8073 38.5367 47.96 38.5998 45.7619 38.8316C43.2061 39.101 41.4969 38.6211 40.779 37.4323C40.4537 36.8935 40.3747 36.5637 40.3238 35.5315C40.2584 34.203 40.4954 32.209 40.8039 31.4924C41.0517 30.9167 41.6891 30.5317 42.4162 30.5185C42.8898 30.5099 43.2845 30.6707 44.3846 31.3205C45.7308 32.1156 47.2942 32.7911 47.4464 32.6434C47.4885 32.6026 47.4467 32.0404 47.3537 31.3941C47.0352 29.1824 47.2574 27.5844 48.0178 26.6169C48.7767 25.6513 50.4181 25.2913 52.6934 25.5915C54.6048 25.8436 55.0328 25.979 55.4535 26.4641C56.0926 27.2012 55.99 27.9615 55.043 29.5046C54.2577 30.7843 53.5195 32.361 53.6475 32.4852C53.6847 32.5212 54.2075 32.4833 54.8094 32.401C56.4375 32.1784 58.5487 32.3093 59.2924 32.6791C60.023 33.0424 60.5758 33.6522 60.8296 34.3749C61.0794 35.0861 61.0776 36.9007 60.8256 38.3857C60.574 39.869 60.0889 40.4977 59.0963 40.6269C58.541 40.6992 58.3307 40.6251 57.003 39.8892C55.5947 39.1086 53.9156 38.3582 53.8089 38.4617C53.7813 38.4885 53.838 39.036 53.9348 39.6784C54.4304 42.9677 53.6723 44.9844 51.7448 45.504C51.0479 45.6918 48.8233 45.6606 47.6245 45.4462ZM51.5161 43.1727C51.8088 42.7843 51.9216 41.8022 51.8083 40.6288L51.7085 39.5956L49.7912 39.6371L49.3879 40.5648C49.1661 41.075 48.7445 41.876 48.4511 42.3447C48.1576 42.8135 47.9176 43.233 47.9176 43.2769C47.9176 43.3959 49.0209 43.4821 50.2399 43.4583C51.1046 43.4415 51.356 43.3852 51.5161 43.1727ZM58.7444 36.3339C58.7512 35.63 58.707 34.9781 58.6462 34.8852C58.3688 34.4618 56.7706 34.2782 55.3481 34.5064L54.7923 34.5955L54.8781 36.4435L55.905 36.8864C56.4698 37.13 57.2941 37.5345 57.7367 37.7852C58.5399 38.2402 58.5417 38.2405 58.6368 37.9275C58.6892 37.7549 58.7376 37.0378 58.7444 36.3339ZM51.6902 37.1774C52.1825 36.8643 52.6056 36.1267 52.6062 35.5803C52.608 34.071 50.6912 33.1318 49.5354 34.0755C48.5556 34.8757 48.423 35.8314 49.1614 36.771C49.7566 37.5282 50.8597 37.7055 51.6902 37.1774ZM46.3303 36.6171C46.4722 36.5645 46.5112 36.3025 46.4731 35.6572L46.4208 34.7696L44.5798 33.8813C43.5673 33.3928 42.7102 33.0208 42.6752 33.0548C42.6402 33.0888 42.5765 33.7837 42.5336 34.5992C42.4611 35.9779 42.4776 36.103 42.7687 36.3856C43.0484 36.657 43.2447 36.6894 44.6085 36.6894C45.4482 36.6894 46.223 36.6569 46.3303 36.6171ZM51.8609 30.7523C52.0373 30.3025 52.448 29.4977 52.7737 28.9638C53.0994 28.4299 53.3322 27.9604 53.291 27.9204C53.1401 27.774 51.196 27.6076 50.5812 27.6885C49.5815 27.8201 49.2889 28.5609 49.4701 30.5016L49.5699 31.57H51.5403L51.8609 30.7523ZM12.4176 46.7292C12.1146 46.622 11.758 46.447 11.6251 46.3402C11.2564 46.0442 10.8505 45.0714 10.8469 44.4753L10.8437 43.942H10.1206C8.88309 43.942 8.21538 43.5433 8.21538 42.8043C8.21538 42.0654 8.88309 41.6667 10.1206 41.6667H10.8437V39.2492H9.82861C8.90649 39.2492 8.78566 39.2148 8.50977 38.8745C8.10689 38.3774 8.12618 37.8917 8.56574 37.4651C8.87436 37.1656 9.0616 37.116 9.88458 37.116H10.8437V34.6985H9.88458C9.0616 34.6985 8.87436 34.649 8.56574 34.3495C8.12618 33.9229 8.10689 33.4372 8.50977 32.9401C8.78566 32.5998 8.90649 32.5654 9.82861 32.5654H10.8437V30.1479H10.0305C9.16539 30.1479 8.44669 29.8799 8.29709 29.5016C8.12783 29.0736 8.20468 28.6387 8.50485 28.326C8.75694 28.0634 8.96304 28.0148 9.82368 28.0148H10.8437V25.4551H9.84351C8.98747 25.4551 8.79737 25.4076 8.52468 25.1259C8.20522 24.7959 8.12705 24.3983 8.29709 23.9683C8.44669 23.5899 9.16539 23.322 10.0305 23.322H10.8437V20.9044H9.88458C9.0616 20.9044 8.87436 20.8549 8.56574 20.5554C8.10734 20.1105 8.10734 19.5653 8.56574 19.1204C8.87436 18.8209 9.0616 18.7713 9.88458 18.7713H10.8437V16.3859L9.80034 16.3287C8.92619 16.2808 8.71227 16.2179 8.4815 15.9414C8.12309 15.5118 8.13256 15.0608 8.50977 14.5954C8.78566 14.255 8.90649 14.2207 9.82861 14.2207H10.8437V11.8032H10.1206C8.88309 11.8032 8.21538 11.4045 8.21538 10.6655C8.21538 9.92937 8.8832 9.52788 10.1077 9.52788H10.818L10.9177 8.95524C11.0451 8.22301 11.7585 7.47742 12.5306 7.2694C13.3108 7.05919 20.3884 7.05806 21.1677 7.26798C21.9748 7.48542 22.6796 8.2073 22.8004 8.94008L22.8972 9.52783H23.6159C24.5845 9.52783 25.3153 9.83831 25.4348 10.3006C25.6834 11.2617 25.0212 11.8031 23.5971 11.8031H22.8598V14.2207H23.86C24.716 14.2207 24.9061 14.2681 25.1788 14.5498C25.5704 14.9543 25.5875 15.5033 25.222 15.9413C24.9912 16.2179 24.7773 16.2807 23.9031 16.3287L22.8598 16.3859V18.7713H23.8189C24.6419 18.7713 24.8291 18.8209 25.1377 19.1203C25.5993 19.5682 25.6079 20.1853 25.1583 20.5952C24.8799 20.849 24.6436 20.9044 23.8394 20.9044H22.8598V23.2898L23.9031 23.347C24.7773 23.395 24.9912 23.4578 25.222 23.7344C25.5819 24.1657 25.5721 24.7548 25.1986 25.1438C24.9465 25.4064 24.7404 25.455 23.8798 25.455H22.8598V28.0148H23.8798C24.7404 28.0148 24.9465 28.0634 25.1986 28.326C25.4988 28.6387 25.5756 29.0735 25.4064 29.5016C25.2568 29.8799 24.5381 30.1479 23.673 30.1479H22.8598V32.5654H23.86C24.716 32.5654 24.9061 32.6128 25.1788 32.8945C25.6014 33.3311 25.585 33.9154 25.1377 34.3494C24.8291 34.6489 24.6419 34.6985 23.8189 34.6985H22.8598V37.116H23.8189C24.6419 37.116 24.8291 37.1656 25.1377 37.4651C25.5993 37.913 25.6079 38.53 25.1583 38.9399C24.8799 39.1937 24.6436 39.2491 23.8394 39.2491H22.8598V41.6666H23.5971C25.0212 41.6666 25.6834 42.2081 25.4348 43.1692C25.3152 43.6316 24.5844 43.9419 23.6153 43.9419H22.896L22.8287 44.73C22.7524 45.6227 22.427 46.1413 21.6721 46.5728C21.2108 46.8365 20.8757 46.8596 17.0715 46.8907C13.8922 46.9166 12.8445 46.8803 12.4176 46.7292ZM20.6617 9.38567H13.0418V44.653H20.6617V9.38567ZM37.6352 24.9531C37.1205 24.6819 36.8685 23.9546 37.0827 23.3585C37.4086 22.4511 38.4753 22.1956 39.2606 22.8369C39.636 23.1434 39.7115 23.3079 39.7115 23.8197C39.7115 24.8862 38.6293 25.477 37.6352 24.9531ZM61.9738 24.755C61.6567 24.4472 61.5455 24.2044 61.5455 23.8197C61.5455 23.0972 62.1931 22.4687 62.9376 22.4687C63.6821 22.4687 64.3297 23.0972 64.3297 23.8197C64.3297 24.5422 63.6821 25.1707 62.9376 25.1707C62.5412 25.1707 62.291 25.0627 61.9738 24.755ZM36.3295 19.61C34.0598 19.2816 32.5157 17.1304 32.9827 14.9474C33.3912 13.0376 34.9409 11.806 36.9273 11.8126C38.6688 11.8183 39.8285 12.501 40.582 13.9642C41.5924 15.9266 40.7899 18.2745 38.7557 19.3073C38.2576 19.5602 37.0375 19.7124 36.3295 19.61ZM38.1556 17.0604C39.3632 16.0315 38.7662 14.1485 37.1773 13.9747C35.648 13.8075 34.6634 15.2771 35.3905 16.6417C35.887 17.5734 37.3021 17.7877 38.1556 17.0604ZM49.9136 19.6034C49.0062 19.4731 47.989 18.8654 47.379 18.0892C45.9356 16.2528 46.5253 13.4602 48.6063 12.2767C49.4988 11.7691 51.1262 11.6503 52.1233 12.0199C53.6604 12.5895 54.6949 14.0784 54.6949 15.7209C54.6949 18.2114 52.5196 19.9778 49.9136 19.6034ZM51.6444 17.2147C52.2115 16.8519 52.4498 16.4078 52.4498 15.7139C52.4498 15.02 52.2115 14.5759 51.6444 14.2131C51.0649 13.8424 50.2735 13.8614 49.6632 14.2605C48.9942 14.698 48.771 15.1539 48.8495 15.9223C48.9406 16.8132 49.6937 17.4919 50.5897 17.4905C50.9601 17.4901 51.3897 17.3776 51.6444 17.2147ZM63.7319 19.61C62.8798 19.4867 62.0312 19.0675 61.4094 18.4628C59.9042 16.9988 59.9078 14.4308 61.4171 12.9548C63.4828 10.935 67.1166 11.6708 68.1362 14.3155C69.232 17.1577 66.8203 20.0568 63.7319 19.61ZM65.5817 17.059C66.7796 15.9669 65.9655 13.9363 64.3297 13.9363C62.5496 13.9363 61.83 16.2117 63.3039 17.1799C63.9676 17.6159 65.0329 17.5593 65.5817 17.059Z" fill="#FFFCFC"/>
</svg>
