<svg width="91" height="72" viewBox="0 0 91 72" fill="none" xmlns="http://www.w3.org/2000/svg">
<path d="M1.25868 70.8666C0.133056 70.338 0.0357621 70.0362 0.0357621 67.0739V64.6217H36.6738L36.9019 65.1385C37.3125 66.0692 37.0295 66.0377 44.962 66.0377C52.9005 66.0377 52.6194 66.0691 52.9905 65.1415L53.1985 64.6217H90.0406L89.9526 69.5982L89.5836 70.0817C89.3807 70.3476 89.0332 70.6758 88.8113 70.8111C88.4161 71.052 87.513 71.057 45.0263 71.0526C7.98524 71.0485 1.58842 71.0215 1.25868 70.8666ZM0.0112912 60.7922C-0.0106328 60.739 0.000349525 50.1045 0.0357498 37.16C0.0989515 14.0496 0.104628 13.6211 0.349992 13.4417C0.562909 13.2861 3.20333 13.259 18.2006 13.259H35.8013L36.0817 13.7128C36.3444 14.1378 36.35 14.1969 36.1709 14.6461L35.9797 15.1256L20.1453 15.19C4.7954 15.2523 4.30247 15.2618 4.03945 15.4999L3.76813 15.7454L3.80067 37.3193C3.81857 49.185 3.87667 58.8788 3.92977 58.8611C3.98287 58.8434 22.5053 58.8289 45.0907 58.8289H86.155L86.153 37.2991C86.1518 25.4577 86.1085 15.7055 86.0565 15.6276C85.7903 15.2289 85.3534 15.19 81.1464 15.19H76.8932L76.6968 14.8102C76.4298 14.2938 76.4503 14.0312 76.7912 13.6053L77.0806 13.2436L83.2435 13.2393C89.3547 13.2351 89.4088 13.2373 89.6795 13.5081L89.9525 13.7811V60.8242L45.0018 60.8566C20.279 60.8744 0.0332314 60.8454 0.0112912 60.7922ZM16.2111 56.1476C16.094 56.0182 15.9981 55.7637 15.9981 55.5822C15.9981 55.1365 25.8753 35.0527 26.2457 34.7453C26.5646 34.4806 27.2095 34.5503 27.475 34.8782C27.6055 35.0395 27.7124 35.2721 27.7124 35.3953C27.7124 35.5184 25.8395 39.4076 23.5503 44.038C21.2612 48.6684 18.9958 53.2555 18.516 54.2316C18.0363 55.2077 17.559 56.091 17.4554 56.1947C17.1905 56.4596 16.4687 56.4323 16.2111 56.1476ZM13.9892 49.8436C13.3595 49.4254 11.4692 48.1754 9.78852 47.0657C6.58158 44.9482 6.39625 44.7698 6.70337 44.0957C6.78385 43.9191 7.66258 43.2891 8.87591 42.5382C9.99648 41.8446 11.6677 40.8027 12.5898 40.2228C15.0347 38.6852 15.2977 38.5638 15.7655 38.7576C16.2178 38.9449 16.4263 39.3923 16.2623 39.8237C16.1924 40.0075 15.6722 40.4226 14.946 40.874C13.8152 41.5768 12.541 42.3766 10.2791 43.8032C9.74289 44.1414 9.30607 44.46 9.30835 44.5112C9.31077 44.5625 10.8729 45.6298 12.78 46.8831C16.5459 49.358 16.6795 49.4882 16.163 50.1831C15.7242 50.7736 15.2869 50.7053 13.9892 49.8436ZM28.7422 50.3328C28.3979 49.9885 28.4127 49.414 28.7744 49.0822C28.9337 48.9361 30.5322 47.8482 32.3266 46.6647C34.121 45.4812 35.5402 44.4703 35.4804 44.4183C35.4206 44.3662 33.9525 43.4395 32.2179 42.359C30.4832 41.2785 28.9337 40.2744 28.7744 40.1277C28.4904 39.8662 28.396 39.3366 28.5833 39.0562C28.8241 38.6954 29.2655 38.5939 29.7499 38.7879C30.2305 38.9804 36.9507 43.1415 37.7281 43.728C38.0933 44.0036 38.1479 44.1156 38.1142 44.5198C38.0769 44.9677 37.9919 45.0469 36.3671 46.1491C32.126 49.026 29.6477 50.5903 29.3307 50.5903C29.1486 50.5903 28.8838 50.4744 28.7422 50.3328ZM52.5562 47.4686C52.488 47.3093 52.2331 46.1746 51.9897 44.947C51.7463 43.7194 51.5282 42.7024 51.505 42.6869C51.4818 42.6714 50.8545 42.4596 50.1111 42.2163C49.3677 41.9729 48.2792 41.5273 47.6922 41.226C47.1052 40.9247 46.568 40.6782 46.4984 40.6782C46.4288 40.6782 45.5012 41.2605 44.437 41.9722C43.3729 42.6839 42.421 43.2973 42.3217 43.3354C42.109 43.4171 36.9808 38.3431 36.9808 38.0511C36.9808 37.9476 37.5601 36.9778 38.2681 35.8961C39.4879 34.0324 39.7038 33.5763 39.4425 33.4148C39.2806 33.3148 38.0736 30.4598 37.8015 29.5332L37.5718 28.7509L35.1997 28.2799C33.8951 28.0208 32.7484 27.743 32.6515 27.6626C32.5101 27.5452 32.4757 26.8144 32.4773 23.9599C32.4785 22.0039 32.5301 20.3233 32.5921 20.2252C32.6597 20.1186 33.6761 19.8466 35.1232 19.548C36.4533 19.2735 37.5523 19.0351 37.5655 19.0182C37.5787 19.0013 37.7212 18.5819 37.8821 18.0863C38.2651 16.9069 38.9859 15.1568 39.3029 14.6371C39.4412 14.4102 39.5546 14.1376 39.5547 14.0314C39.5549 13.9252 38.9759 12.9694 38.2681 11.9074C37.5603 10.8454 36.9811 9.87862 36.981 9.75904C36.9807 9.44217 42.0889 4.33347 42.3181 4.4214C42.4194 4.46028 43.3729 5.07438 44.437 5.78607C45.5012 6.49777 46.4282 7.08006 46.4972 7.08006C46.5661 7.08006 47.1903 6.79752 47.8841 6.45219C49.0771 5.85846 50.9617 5.14914 51.3462 5.14914C51.5452 5.14914 51.5158 5.25743 52.0448 2.57457C52.2611 1.47716 52.4926 0.448939 52.5592 0.289638L52.6802 0H56.4201C59.7257 0 60.1692 0.0238544 60.2388 0.205457C60.2822 0.318459 60.5266 1.45048 60.7819 2.72106L61.2461 5.0312L62.5542 5.46934C63.2736 5.71032 64.3876 6.17131 65.0296 6.49377C65.6717 6.81623 66.2453 7.08006 66.3043 7.08006C66.3633 7.08006 67.132 6.60017 68.0125 6.01365C68.8931 5.42712 69.8364 4.81063 70.1089 4.64366L70.6043 4.34009L73.2305 6.964C74.675 8.40715 75.8568 9.65918 75.8568 9.74629C75.8568 9.83339 75.2477 10.8254 74.5032 11.9508L73.1495 13.997L73.7937 15.2747C74.4426 16.5616 75.0844 18.2569 75.0844 18.6836C75.0844 19.0205 75.3386 19.1095 77.4015 19.4953C78.4281 19.6872 79.4853 19.8999 79.7508 19.9679L80.2336 20.0916V27.683L79.9439 27.7875C79.7846 27.845 78.6597 28.0849 77.4441 28.3207L75.2339 28.7495L74.8428 29.9833C74.6277 30.6619 74.1605 31.8127 73.8045 32.5406L73.1573 33.8641L74.507 35.8627C75.2494 36.962 75.8568 37.9387 75.8568 38.0333C75.8568 38.1897 70.8297 43.268 70.5899 43.3538C70.5334 43.374 69.6245 42.8201 68.57 42.1229C67.5155 41.4257 66.5743 40.8083 66.4785 40.7509C66.3683 40.6849 65.8379 40.8701 65.0354 41.2551C64.3375 41.5898 63.2006 42.0508 62.5089 42.2795L61.2513 42.6954L60.7665 45.0659C60.4999 46.3697 60.2544 47.5088 60.2209 47.5973C60.1741 47.721 59.2937 47.7582 56.4201 47.7582H52.6802L52.5562 47.4686ZM58.7152 34.8119C60.4002 34.4855 62.3508 33.5342 63.4348 32.5103C63.7719 32.1918 64.1415 31.8992 64.2561 31.86C64.596 31.7438 65.7775 30.0494 66.3988 28.7872C67.2303 27.0978 67.5134 25.8927 67.5216 24.0078C67.5349 20.932 66.5598 18.44 64.4906 16.2616C62.1937 13.8436 59.2023 12.6334 55.9039 12.7877C54.1474 12.8698 52.9724 13.1621 51.5029 13.8825C48.209 15.4974 45.9044 18.6325 45.3374 22.27C45.1481 23.4844 45.262 25.5029 45.5895 26.74C46.5491 30.3644 49.3645 33.346 52.9036 34.4856C54.9368 35.1404 56.5521 35.2311 58.7152 34.8119Z" fill="white"/>
</svg>
