<svg width="69" height="69" viewBox="0 0 69 69" fill="none" xmlns="http://www.w3.org/2000/svg">
<path d="M23.1733 68.5617C22.5492 68.2133 22.3411 67.4479 22.6873 66.7737C22.949 66.2639 23.413 66.0904 24.517 66.0895L25.467 66.0886L26.4562 62.3422C27.0003 60.2816 27.4643 58.4898 27.4872 58.3604C27.5269 58.1369 26.9297 58.1234 15.5506 58.0892C3.68751 58.0536 3.56636 58.0506 2.9719 57.7736C2.09437 57.3646 1.45534 56.7406 1.03841 55.8855L0.67041 55.1308V13.2859L0.948139 12.6814C1.35417 11.7975 1.97375 11.1539 2.82275 10.734L3.57214 10.3634L31.8473 10.2923L31.8886 7.00682C31.9265 3.99704 31.9532 3.6706 32.2077 3.1168C32.6137 2.23298 33.2333 1.58938 34.0823 1.16947L34.8317 0.798828H59.892L60.6414 1.16947C61.4904 1.58938 62.11 2.23298 62.516 3.1168C62.7704 3.67037 62.7973 3.99717 62.835 6.9933L62.8762 10.2653L64.0327 10.321C65.896 10.4107 67.0945 11.1632 67.7919 12.6814L68.0696 13.2859V55.1308L67.7862 55.7484C67.4238 56.5379 66.565 57.4029 65.7811 57.7679C65.1699 58.0524 65.1298 58.0535 53.1895 58.0893C41.8104 58.1234 41.2131 58.137 41.2528 58.3605C41.2758 58.4899 41.7398 60.2817 42.2838 62.3422L43.2731 66.0887L44.2231 66.0895C45.327 66.0904 45.791 66.264 46.0528 66.7738C46.4059 67.4615 46.161 68.2938 45.519 68.5884C44.9886 68.8318 23.6114 68.8062 23.1733 68.5617ZM40.5168 65.8578C40.4781 65.7299 40.0263 64.0412 39.5127 62.105C38.9991 60.1688 38.5479 58.4801 38.51 58.3522C38.4463 58.1374 38.133 58.1198 34.37 58.1198C30.6071 58.1198 30.2938 58.1374 30.2301 58.3522C30.1922 58.4801 29.7409 60.1688 29.2273 62.105C28.7137 64.0412 28.2619 65.7299 28.2233 65.8578C28.1571 66.0769 28.5103 66.0902 34.37 66.0902C40.2297 66.0902 40.5829 66.0769 40.5168 65.8578ZM64.7759 55.3042C65.2671 55.0788 65.4977 54.5375 65.4977 53.6098V52.8061H26.7242L26.2964 52.4212C25.9425 52.1027 25.8687 51.9399 25.8687 51.4777C25.8687 51.0155 25.9425 50.8528 26.2964 50.5342L26.7242 50.1493H33.3509L33.2799 47.8578C33.2222 45.9961 33.1463 45.3243 32.8751 44.2764C32.2658 41.9217 30.6221 39.3082 28.873 37.913C27.5373 36.8476 27.6316 36.8646 26.8719 37.5525C25.476 38.8165 23.4073 39.5396 21.1887 39.539C18.9074 39.5385 16.965 38.8511 15.4508 37.5087C14.8654 36.9897 14.8154 36.971 14.4788 37.1443C14.2836 37.2449 13.4999 37.9555 12.7372 38.7235C11.6928 39.7751 11.1957 40.3985 10.7234 41.249C9.54726 43.3667 9.04585 45.6341 9.04585 48.835V50.1493H12.2711C15.7549 50.1493 16.0503 50.1985 16.376 50.8328C16.6139 51.2962 16.6139 51.6593 16.376 52.1227C16.0291 52.7984 15.9498 52.8061 9.36939 52.8061H3.2424L3.24707 53.6364C3.25223 54.5526 3.43928 55.0112 3.9164 55.2776C4.35721 55.5236 64.2406 55.5499 64.7759 55.3042ZM20.3865 52.4408C20.1288 52.2069 19.956 51.8976 19.9061 51.5809C19.8368 51.1421 19.8805 51.0334 20.2931 50.6178C20.79 50.1173 21.1832 50.0353 21.7776 50.308C22.6842 50.724 22.7109 52.1532 21.8207 52.6168C21.275 52.9011 20.8337 52.8469 20.3865 52.4408ZM6.53981 47.9057C6.53981 46.4589 6.61064 45.286 6.73924 44.6032C7.41738 41.0028 9.46817 37.6658 12.3557 35.4642L13.2242 34.802L12.9716 34.2063C12.5518 33.216 12.3128 32.0869 12.2269 30.6881C12.1519 29.4653 12.1231 29.3565 11.865 29.3194C11.46 29.2612 11.0244 28.7379 10.9468 28.2164C10.8578 27.6179 11.2806 26.9236 11.7973 26.8195C12.1664 26.7451 12.1762 26.7204 12.2573 25.6604C12.3677 24.2172 12.6371 23.2132 13.2772 21.8594C14.2682 19.7636 16.3792 18.0573 18.8062 17.3903C19.9698 17.0706 22.3841 17.0662 23.5503 17.3818C27.3834 18.4188 29.8152 21.4696 30.1065 25.6069C30.1791 26.6379 30.2171 26.7693 30.4428 26.7693C30.8785 26.7693 31.4683 27.4833 31.4683 28.0108C31.4683 28.5555 30.955 29.2537 30.5075 29.3178C30.232 29.3573 30.2105 29.4434 30.1316 30.8209C30.0536 32.1834 29.6259 33.9917 29.2393 34.5939C29.1498 34.7334 29.3238 34.9303 29.9313 35.3771C31.8402 36.7811 33.6825 39.1267 34.6482 41.3827C35.5649 43.5242 35.9459 45.6519 35.9505 48.6548L35.9528 50.1493H65.4977V32.0763C65.4977 12.43 65.5369 13.4617 64.7759 13.1125C64.5857 13.0252 64.0767 12.9538 63.6449 12.9538H62.8597V17.0478C62.8597 21.689 62.8037 22.0617 61.9414 23.1604C61.5946 23.6023 61.1712 23.9448 60.658 24.1986L59.892 24.5774L45.2515 24.7102L42.0357 26.6696C40.2449 27.7608 38.6786 28.629 38.5009 28.629C38.0265 28.629 37.4758 28.2964 37.2974 27.9021C37.2062 27.7006 37.1399 26.9476 37.1399 26.1151V24.6763L35.9858 24.6179C34.1305 24.524 32.9983 23.8461 32.2979 22.4096L31.9299 21.6549L31.8506 12.9538H18.0803C7.68501 12.9538 4.22522 12.9927 3.96414 13.1125C3.20313 13.4617 3.2424 12.43 3.2424 32.0763V50.1493H6.53981V47.9057ZM44.1707 45.445C43.8634 45.1787 43.8006 45.019 43.8006 44.5036C43.8006 43.9881 43.8634 43.8284 44.1707 43.5622L44.5408 43.2416H59.4157L59.7858 43.5622C60.0931 43.8284 60.1558 43.9881 60.1558 44.5036C60.1558 45.019 60.0931 45.1787 59.7858 45.445L59.4157 45.7656H44.5408L44.1707 45.445ZM44.1707 40.1313C43.8634 39.8651 43.8006 39.7054 43.8006 39.1899C43.8006 38.6744 43.8634 38.5147 44.1707 38.2485L44.5408 37.9279H59.4157L59.7858 38.2485C60.0931 38.5147 60.1558 38.6744 60.1558 39.1899C60.1558 39.7054 60.0931 39.8651 59.7858 40.1313L59.4157 40.4519H44.5408L44.1707 40.1313ZM44.1707 34.8177C43.8634 34.5514 43.8006 34.3917 43.8006 33.8763C43.8006 33.3608 43.8634 33.2011 44.1707 32.9349L44.5408 32.6143H59.4157L59.7858 32.9349C60.0931 33.2011 60.1558 33.3608 60.1558 33.8763C60.1558 34.3917 60.0931 34.5514 59.7858 34.8177L59.4157 35.1383H44.5408L44.1707 34.8177ZM23.5798 36.4827C25.9067 35.5683 27.3378 33.454 27.4795 30.7213L27.5467 29.4261H14.8493L14.8513 30.3228C14.8553 32.1644 15.4511 33.7414 16.6085 34.974C17.3853 35.8012 18.1037 36.2607 19.1752 36.6156C20.2427 36.9692 22.5163 36.9006 23.5798 36.4827ZM19.8614 19.8327L19.4987 19.9185C18.6555 20.118 17.4223 20.8561 16.7033 21.5916C15.5326 22.7891 14.8493 24.4549 14.8493 26.1116V26.7693H19.8614V19.8327ZM27.5114 26.0001C27.5114 23.6225 26.0886 21.3675 23.9313 20.3263C22.3768 19.576 22.4993 19.3201 22.4993 23.3154V26.7693H27.5114V26.0001ZM42.2838 23.4482L44.6915 21.987H51.9228C57.2484 21.987 59.2453 21.9452 59.5 21.8283C60.2334 21.4917 60.2218 21.639 60.2218 12.701C60.2218 6.59808 60.181 4.37423 60.0642 4.11614C59.7231 3.36213 60.1967 3.38923 47.3619 3.38923C34.527 3.38923 35.0006 3.36213 34.6595 4.11614C34.5428 4.37421 34.5019 6.59519 34.5019 12.6881C34.5019 18.781 34.5428 21.002 34.6595 21.2601C34.9308 21.8597 35.3777 21.987 37.2124 21.987H38.8809L39.3293 22.4386C39.7607 22.8731 39.7778 22.9289 39.7778 23.8999C39.7778 24.4552 39.7999 24.9095 39.827 24.9095C39.854 24.9095 40.9596 24.2519 42.2838 23.4482ZM38.958 15.3735C36.8965 13.2973 36.8761 13.2709 36.8761 12.6881C36.8761 12.1053 36.8965 12.0789 38.958 10.0027C40.8513 8.09587 41.0817 7.90583 41.5006 7.90583C42.0688 7.90583 42.5212 8.21045 42.7433 8.74256C43.0255 9.41855 42.7902 9.84851 41.3305 11.3237L39.9804 12.6881L41.3305 14.0526C42.7902 15.5277 43.0255 15.9577 42.7433 16.6337C42.5212 17.1658 42.0688 17.4704 41.5006 17.4704C41.0817 17.4704 40.8513 17.2804 38.958 15.3735ZM44.5159 17.0821C43.8003 16.3613 43.8841 16.11 46.1803 12.0903C47.3072 10.1176 48.3786 8.36911 48.5613 8.20472C49.0473 7.76726 49.721 7.80384 50.2078 8.29414C50.9234 9.01492 50.8396 9.26625 48.5434 13.2859C47.4166 15.2586 46.3451 17.0071 46.1624 17.1715C45.6764 17.609 45.0027 17.5724 44.5159 17.0821ZM52.4553 17.2538C52.0008 16.9331 51.7495 16.2428 51.9199 15.783C51.9956 15.5786 52.6619 14.7986 53.4005 14.0497L54.7434 12.6881L53.3932 11.3237C51.9335 9.84851 51.6982 9.41855 51.9804 8.74256C52.2026 8.21045 52.655 7.90583 53.2231 7.90583C53.642 7.90583 53.8725 8.09587 55.7657 10.0027C57.8272 12.0789 57.8476 12.1053 57.8476 12.6881C57.8476 13.2709 57.8272 13.2973 55.7657 15.3735C53.8725 17.2804 53.642 17.4704 53.2231 17.4704C52.9697 17.4704 52.6242 17.3729 52.4553 17.2538Z" fill="white"/>
</svg>
