<svg width="42" height="74" viewBox="0 0 42 74" fill="none" xmlns="http://www.w3.org/2000/svg">
<path d="M35.9586 0.98584H5.30232C2.36839 0.98584 0 3.36723 0 6.29879V68.6137C0 71.5426 2.36839 73.9213 5.30232 73.9213H35.9586C38.8873 73.9213 41.261 71.5426 41.261 68.6137V6.29879C41.261 3.36723 38.8873 0.98584 35.9586 0.98584ZM13.066 4.21242H28.2003C28.5826 4.21242 28.8933 4.78384 28.8933 5.49082C28.8933 6.1978 28.5826 6.77188 28.2003 6.77188H13.066C12.681 6.77188 12.3756 6.1978 12.3756 5.49082C12.3756 4.78384 12.681 4.21242 13.066 4.21242ZM20.6331 68.6775C18.7666 68.6775 17.2478 67.1572 17.2478 65.2861C17.2478 63.415 18.7666 61.9001 20.6331 61.9001C22.4944 61.9001 24.0131 63.415 24.0131 65.2861C24.0131 67.1572 22.4944 68.6775 20.6331 68.6775ZM37.2889 57.0655H3.97475V9.95062H37.2889V57.0655Z" fill="white"/>
</svg>
