<svg width="61" height="81" viewBox="0 0 61 81" fill="none" xmlns="http://www.w3.org/2000/svg">
<path d="M16.3422 79.661C14.8563 78.0576 14.946 76.0074 16.5734 74.38C17.572 73.3815 18.1463 73.1399 19.288 73.2382C20.2479 73.3209 21.0309 73.0963 21.6104 72.5718C22.3742 71.8806 22.4846 71.2887 22.4846 67.8858C22.4846 63.991 22.4846 63.991 20.6191 62.4624C19.5931 61.6216 18.6431 60.9338 18.508 60.9338C18.3729 60.9338 18.2624 62.8134 18.2624 65.1108C18.2624 69.6593 18.1847 69.8004 15.6813 69.8004C14.9504 69.8004 14.333 70.0685 14.1869 70.4494C13.793 71.4759 11.5611 72.4385 10.3002 72.1257C7.45925 71.4209 6.32436 68.1795 8.11955 65.8973C9.54864 64.0805 13.0593 64.1676 14.0639 66.0448C14.2994 66.4848 14.7704 66.8449 15.1106 66.8449C15.6156 66.8449 15.7291 66.0067 15.7291 62.274C15.7291 57.8958 15.6828 57.66 14.6315 56.6796C12.9355 55.0979 8.32705 47.964 6.73414 44.4545C3.00683 36.2425 0.165736 23.2338 0.60475 16.3893C0.759079 13.9833 -0.0984988 14.3828 8.12905 12.8843C15.9899 11.4526 23.2501 7.63204 27.5566 2.66091C30.4018 -0.623299 31.0341 -0.623299 33.8792 2.66091C38.1858 7.63204 45.446 11.4526 53.3068 12.8843C61.5344 14.3828 60.6768 13.9833 60.8311 16.3893C61.1276 21.0113 59.4272 31.2915 57.2695 37.9226C55.6904 42.7756 52.4402 49.1971 49.509 53.2554C46.9735 56.7659 46.9735 56.7659 46.9735 61.8054C46.9735 67.3412 47.1458 67.6468 49.1718 65.7058C52.2314 62.7745 56.9032 66.0168 55.2659 69.9352C54.1807 72.5325 50.8798 73.0114 48.9959 70.8448C48.4433 70.2092 47.6354 69.8004 46.9319 69.8004C44.49 69.8004 44.4402 69.694 44.4402 64.4775C44.4402 61.8318 44.2887 59.6671 44.1036 59.6671C43.9185 59.6671 43.0635 60.3876 42.2036 61.2682C40.6402 62.8694 40.6402 62.8694 40.6402 67.5499C40.6402 72.804 40.95 73.4506 43.3676 73.2423C45.4774 73.0605 47.3957 74.8667 47.3957 77.0349C47.3957 80.6571 43.1874 82.2109 40.862 79.4473C40.0651 78.5003 39.7757 77.7265 39.8585 76.7647C39.9419 75.7968 39.6499 75.0268 38.8298 74.0522C37.7641 72.7857 37.6846 72.4188 37.6846 68.7662V64.8412L35.1547 66.1597C32.6248 67.4782 32.6248 67.4782 32.6214 69.5907C32.6184 71.393 32.8039 71.8787 33.8846 72.8987C36.5619 75.4257 34.8633 79.5115 31.1354 79.5115C30.4652 79.5115 29.5269 79.0187 28.7855 78.2773C27.1389 76.6308 27.1495 74.9319 28.8179 73.0316C29.8199 71.8904 30.0817 71.2035 30.0706 69.7447C30.0567 67.904 30.0518 67.8982 27.5373 66.7627L25.0179 65.6251V69.273C25.0179 72.6644 24.9375 73.0049 23.8735 74.1154C22.9757 75.0525 22.7537 75.6525 22.8437 76.899C23.0084 79.1791 21.4679 80.7782 19.1068 80.7782C17.7792 80.7782 17.1371 80.5187 16.3422 79.661ZM20.2334 77.5788C20.3739 77.2125 20.178 76.6017 19.7979 76.2216C19.1579 75.5817 19.0557 75.5817 18.4158 76.2216C17.5525 77.0849 17.9488 78.2449 19.1068 78.2449C19.5858 78.2449 20.0928 77.9451 20.2334 77.5788ZM44.7791 77.1332C44.9431 75.9899 43.6714 75.4549 42.8181 76.3082C42.2945 76.8318 42.283 77.0473 42.7487 77.6085C43.4935 78.5058 44.6202 78.2421 44.7791 77.1332ZM31.9501 76.7219C32.8137 76.3905 32.8149 74.9162 31.9518 74.585C31.5854 74.4444 30.9842 74.6308 30.6158 74.9993C30.0637 75.5514 30.0414 75.7842 30.4891 76.3237C31.1114 77.0734 31.0662 77.0611 31.9501 76.7219ZM11.6698 69.1549C12.4759 68.3488 12.107 67.2671 11.0262 67.2671C10.0017 67.2671 9.55902 68.3464 10.2446 69.1725C10.8862 69.9456 10.8791 69.9457 11.6698 69.1549ZM52.8014 68.3745C52.7201 67.8047 52.368 67.4782 51.8348 67.4782C50.8688 67.4782 50.4149 68.8957 51.2214 69.3941C52.0664 69.9163 52.9408 69.352 52.8014 68.3745ZM33.3709 64.1455C44.4103 58.5443 53.2961 45.4973 56.6431 29.9749C57.5858 25.6026 58.5674 17.2557 58.2073 16.6731C58.0769 16.4621 56.8255 16.1599 55.4265 16.0016C46.8885 15.0357 36.1909 9.91301 32.4388 4.99373C31.817 4.17853 31.0426 3.51154 30.7179 3.51154C30.3932 3.51154 29.6188 4.17853 28.9971 4.99373C25.2449 9.91301 14.5474 15.0357 6.00942 16.0016C4.61038 16.1599 3.35901 16.4621 3.22859 16.6731C2.86851 17.2557 3.85008 25.6026 4.79283 29.9749C8.11004 45.3593 16.4265 57.7286 27.5903 63.8822C30.362 65.41 30.8362 65.4316 33.3709 64.1455ZM27.5417 61.0393C23.7608 58.8504 17.3589 52.3098 14.5548 47.7713C10.5791 41.3363 7.79232 33.2428 6.58138 24.6147C6.19916 21.8914 5.99592 19.3779 6.12972 19.0293C6.27327 18.6552 7.20893 18.2712 8.41214 18.0925C11.309 17.6624 18.0248 15.4581 21.0068 13.9587C23.93 12.4888 27.9532 9.83127 28.8002 8.81067C30.1046 7.23895 30.8228 7.2191 32.5013 8.7084C37.3637 13.0227 46.2522 17.0871 53.0237 18.0925C54.227 18.2712 55.1626 18.6552 55.3062 19.0293C55.6937 20.0392 54.2619 29.2119 53.075 33.3222C50.2999 42.9332 46.7156 49.3023 40.6402 55.4182C37.0822 58.9998 32.0927 62.6226 30.7179 62.6226C30.4751 62.6226 29.0458 61.9101 27.5417 61.0393ZM34.1351 57.6183C41.0311 52.7734 46.4808 44.9909 49.6701 35.4333C51.0999 31.1487 52.5417 24.074 52.3784 22.145C52.2614 20.7648 52.1161 20.6173 50.5624 20.3033C45.0521 19.1895 36.8791 15.5652 32.8435 12.4458L30.7469 10.8252L28.1991 12.7034C23.8339 15.9215 16.3836 19.1896 10.8735 20.3033C9.31982 20.6173 9.17443 20.7648 9.05752 22.145C8.98763 22.9702 9.31807 25.5475 9.79184 27.8724C11.914 38.2859 15.8408 46.4321 21.8219 52.8287C24.3389 55.5206 29.7331 59.6671 30.7179 59.6671C30.9934 59.6671 32.5311 58.7451 34.1351 57.6183ZM20.4579 44.8049C19.8915 44.2385 19.7268 30.6958 20.2758 29.833C20.4471 29.5636 21.1567 29.2786 21.8526 29.1996C23.088 29.0594 23.123 28.991 23.33 26.3115C23.7086 21.4131 26.1987 18.9227 30.7179 18.9227C35.2372 18.9227 37.7273 21.4131 38.1058 26.3115C38.3129 28.991 38.3479 29.0594 39.5832 29.1996C40.2791 29.2786 40.9887 29.5636 41.1601 29.833C41.7091 30.6958 41.5443 44.2385 40.9779 44.8049C40.2587 45.5241 21.1771 45.5241 20.4579 44.8049ZM38.529 31.8004H22.9068V42.7782H38.529V31.8004ZM29.6772 39.006C28.5591 36.9166 29.715 34.054 31.2811 35.0342C32.6755 35.9069 32.2149 39.8227 30.7179 39.8227C30.3859 39.8227 29.9176 39.4551 29.6772 39.006ZM35.5735 27.1156C35.5735 24.52 34.6372 22.7646 32.7838 21.885C31.0906 21.0816 30.3453 21.0816 28.6521 21.885C26.7986 22.7646 25.8624 24.52 25.8624 27.1156C25.8624 29.2671 25.8624 29.2671 30.7179 29.2671C35.5735 29.2671 35.5735 29.2671 35.5735 27.1156Z" fill="white"/>
</svg>
