<svg width="42" height="42" viewBox="0 0 42 42" fill="none" xmlns="http://www.w3.org/2000/svg">
<rect x="0.75" y="0.75" width="40.5" height="40.5" stroke="black" stroke-width="0.5"/>
<path d="M27.1416 8.77498V10.3483L24.9275 11.6216V8.95831C24.9284 7.99277 24.5458 7.0664 23.8638 6.38288C23.1818 5.69936 22.2564 5.31464 21.2908 5.31331H20.7166C20.238 5.31331 19.7641 5.4076 19.3219 5.59079C18.8797 5.77398 18.4779 6.04248 18.1395 6.38096C17.8011 6.71944 17.5327 7.12127 17.3496 7.56349C17.1666 8.00572 17.0724 8.47968 17.0725 8.95831V18.0875C17.0725 18.5125 16.8475 18.9033 16.4725 19.1191L13.2116 21L10.9816 19.71L13.9275 18.0125C14.2106 17.8486 14.4457 17.6133 14.6092 17.33C14.7727 17.0467 14.8589 16.7254 14.8591 16.3983V8.78331C14.86 7.27185 15.4608 5.82255 16.5296 4.75378C17.5984 3.68501 19.0477 3.0842 20.5591 3.08331H21.4508C22.1983 3.08298 22.9386 3.22998 23.6293 3.5159C24.32 3.80181 24.9476 4.22105 25.4762 4.74963C26.0047 5.27822 26.424 5.90579 26.7099 6.59648C26.9958 7.28718 27.142 8.02745 27.1416 8.77498ZM24.9275 27.8491V30.3783L21.9316 28.6475C21.647 28.4882 21.3262 28.4046 21 28.4046C20.6738 28.4046 20.353 28.4882 20.0683 28.6475L17.0725 30.3783L14.8583 31.6516L13.4775 32.4508C12.1694 33.2054 10.6154 33.4101 9.15662 33.02C7.69781 32.6298 6.45342 31.6767 5.69665 30.37L5.47165 29.9783L5.24665 29.5966C4.87226 28.9487 4.6293 28.2334 4.53167 27.4915C4.43405 26.7496 4.48369 25.9957 4.67773 25.273C4.87178 24.5503 5.20643 23.873 5.66253 23.2797C6.11864 22.6865 6.68725 22.189 7.33582 21.8158L8.74998 20.9991L10.9808 22.29L8.56748 23.68C8.15257 23.9185 7.78874 24.2365 7.49681 24.6157C7.20487 24.995 6.99055 25.428 6.8661 25.8901C6.74165 26.3523 6.70951 26.8344 6.77152 27.3089C6.83353 27.7835 6.98847 28.2412 7.22748 28.6558L7.51082 29.1475C7.9943 29.9859 8.79096 30.5979 9.72562 30.849C10.6603 31.1002 11.6564 30.9698 12.495 30.4866L14.8583 29.1216L17.0725 27.84L20.4008 25.9183L20.4091 25.9266C20.7758 25.71 21.225 25.71 21.5908 25.9266H21.5991L24.9275 27.8491Z" stroke="#BBBBBB" stroke-width="2" stroke-linecap="round" stroke-linejoin="round"/>
<path d="M34.7642 28.6642L34.4808 29.1642C33.9946 29.9975 33.1982 30.6044 32.2658 30.8522C31.3334 31.1 30.3408 30.9686 29.505 30.4867L27.1417 29.1217V25.6017C27.1417 24.9359 27.5 24.3284 28.0733 23.9959L31.0192 22.29L33.4325 23.68C33.8474 23.9196 34.211 24.2387 34.5025 24.6189C34.7941 24.9992 35.0078 25.4332 35.1314 25.8961C35.2551 26.359 35.2863 26.8417 35.2233 27.3167C35.1603 27.7917 35.0043 28.2496 34.7642 28.6642M14.8583 25.6017V29.1217L12.495 30.4867C11.6563 30.9698 10.6601 31.1 9.72545 30.8487C8.79078 30.5974 7.99418 29.9852 7.51084 29.1467L7.22751 28.6559C6.98849 28.2412 6.83355 27.7835 6.77154 27.309C6.70953 26.8344 6.74167 26.3523 6.86612 25.8902C6.99057 25.4281 7.2049 24.995 7.49683 24.6158C7.78877 24.2365 8.15259 23.9185 8.56751 23.68L10.9808 22.29L13.9267 23.9959C14.2091 24.1583 14.4439 24.3922 14.6074 24.6741C14.7709 24.9559 14.8575 25.2758 14.8583 25.6017ZM20.0683 13.3525L17.0725 11.6217V8.95835C17.0724 8.47973 17.1666 8.00576 17.3497 7.56354C17.5327 7.12131 17.8012 6.71948 18.1396 6.381C18.478 6.04252 18.8797 5.77402 19.3219 5.59083C19.7641 5.40764 20.238 5.31335 20.7167 5.31335H21.2917C22.2571 5.3149 23.1823 5.69971 23.8641 6.38321C24.5459 7.06671 24.9284 7.99296 24.9275 8.95835V11.6217L21.9317 13.3525C21.3575 13.6859 20.6425 13.6859 20.0675 13.3525H20.0683ZM28.7892 21L25.5267 22.8809C25.1525 23.0975 24.9275 23.4884 24.9275 23.9125V27.8492L21.5992 25.9267H21.5908C21.2242 25.71 20.775 25.71 20.4092 25.9267L20.4008 25.9184L17.0725 27.8409V23.9125C17.0725 23.4875 16.8475 23.0975 16.4725 22.8809L13.2117 21L16.4742 19.1192C16.8492 18.9025 17.0733 18.5117 17.0733 18.0875V14.1584L20.4017 16.0809L20.41 16.0725C20.7767 16.2892 21.2258 16.2892 21.5917 16.0725L21.6 16.0809L24.9283 14.1584V18.0867C24.9283 18.5117 25.1533 18.9025 25.5283 19.1184L28.7892 21Z" stroke="#BBBBBB" stroke-width="2" stroke-linecap="round" stroke-linejoin="round"/>
<path d="M34.7642 28.6642L34.4808 29.1642C33.9946 29.9975 33.1982 30.6044 32.2658 30.8522C31.3334 31.1 30.3408 30.9686 29.505 30.4867L27.1417 29.1217V25.6017C27.1417 24.9359 27.5 24.3284 28.0733 23.9959L31.0192 22.29L33.4325 23.68C33.8474 23.9196 34.211 24.2387 34.5025 24.6189C34.7941 24.9992 35.0078 25.4332 35.1314 25.8961C35.2551 26.359 35.2863 26.8417 35.2233 27.3167C35.1603 27.7917 35.0043 28.2496 34.7642 28.6642M14.8583 25.6017V29.1217L12.495 30.4867C11.6563 30.9698 10.6601 31.1 9.72545 30.8487C8.79078 30.5974 7.99418 29.9852 7.51084 29.1467L7.22751 28.6559C6.98849 28.2412 6.83355 27.7835 6.77154 27.309C6.70953 26.8344 6.74167 26.3523 6.86612 25.8902C6.99057 25.4281 7.2049 24.995 7.49683 24.6158C7.78877 24.2365 8.15259 23.9185 8.56751 23.68L10.9808 22.29L13.9267 23.9959C14.2091 24.1583 14.4439 24.3922 14.6074 24.6741C14.7709 24.9559 14.8575 25.2758 14.8583 25.6017ZM20.0683 13.3525L17.0725 11.6217V8.95835C17.0724 8.47973 17.1666 8.00576 17.3497 7.56354C17.5327 7.12131 17.8012 6.71948 18.1396 6.381C18.478 6.04252 18.8797 5.77402 19.3219 5.59083C19.7641 5.40764 20.238 5.31335 20.7167 5.31335H21.2917C22.2571 5.3149 23.1823 5.69971 23.8641 6.38321C24.5459 7.06671 24.9284 7.99296 24.9275 8.95835V11.6217L21.9317 13.3525C21.3575 13.6859 20.6425 13.6859 20.0675 13.3525H20.0683ZM28.7892 21L25.5267 22.8809C25.1525 23.0975 24.9275 23.4884 24.9275 23.9125V27.8492L21.5992 25.9267H21.5908C21.2242 25.71 20.775 25.71 20.4092 25.9267L20.4008 25.9184L17.0725 27.8409V23.9125C17.0725 23.4875 16.8475 23.0975 16.4725 22.8809L13.2117 21L16.4742 19.1192C16.8492 18.9025 17.0733 18.5117 17.0733 18.0875V14.1584L20.4017 16.0809L20.41 16.0725C20.7767 16.2892 21.2258 16.2892 21.5917 16.0725L21.6 16.0809L24.9283 14.1584V18.0867C24.9283 18.5117 25.1533 18.9025 25.5283 19.1184L28.7892 21Z" stroke="#BBBBBB" stroke-width="2" stroke-linecap="round" stroke-linejoin="round"/>
<path d="M17.0725 23.9125V27.8409L14.8583 29.1217V25.6017C14.8583 24.9359 14.5 24.3284 13.9267 23.9959L10.9808 22.29L8.75001 21L7.33501 20.1842C6.68662 19.8109 6.11819 19.3134 5.66224 18.7202C5.20629 18.127 4.87177 17.4498 4.67781 16.7272C4.48384 16.0046 4.43425 15.2508 4.53186 14.509C4.62948 13.7673 4.87238 13.052 5.24668 12.4042L5.47168 12.0209L5.69585 11.6292C6.45275 10.3226 7.6972 9.36967 9.15601 8.97969C10.6148 8.58972 12.1687 8.79454 13.4767 9.54919L14.8575 10.3484V12.8784L12.4942 11.5134C11.6555 11.0302 10.6593 10.9 9.72463 11.1513C8.78996 11.4026 7.99336 12.0148 7.51001 12.8534L7.22668 13.3442C6.98766 13.7588 6.83272 14.2165 6.77071 14.6911C6.70871 15.1656 6.74085 15.6477 6.8653 16.1099C6.98975 16.572 7.20407 17.005 7.49601 17.3843C7.78794 17.7635 8.15177 18.0815 8.56668 18.32L10.98 19.71L13.2108 21L16.4733 22.8809C16.8483 23.0975 17.0725 23.4884 17.0725 23.9125Z" stroke="#BBBBBB" stroke-width="2" stroke-linecap="round" stroke-linejoin="round"/>
<path d="M13.9267 18.0125L10.9808 19.71L8.56751 18.32C8.15259 18.0815 7.78877 17.7635 7.49683 17.3842C7.2049 17.005 6.99057 16.5719 6.86612 16.1098C6.74167 15.6477 6.70953 15.1656 6.77154 14.691C6.83355 14.2165 6.98849 13.7588 7.22751 13.3441L7.51084 12.8525C7.99432 12.0141 8.79098 11.402 9.72564 11.1509C10.6603 10.8998 11.6564 11.0301 12.495 11.5133L14.8583 12.8783V16.3983C14.8583 17.0641 14.5 17.6791 13.9267 18.0125ZM31.0192 22.29L28.0733 23.9958C27.7909 24.1583 27.5561 24.3922 27.3926 24.6741C27.2291 24.9559 27.1425 25.2758 27.1417 25.6016V33.2241C27.1421 33.9717 26.9952 34.7121 26.7093 35.4029C26.4235 36.0937 26.0042 36.7214 25.4757 37.25C24.9471 37.7787 24.3194 38.198 23.6287 38.484C22.9379 38.77 22.1976 38.917 21.45 38.9167H20.5583C19.0469 38.9158 17.5976 38.3149 16.5288 37.2462C15.46 36.1774 14.8592 34.7281 14.8583 33.2166V31.6516L17.0725 30.3783V33.0416C17.0724 33.5203 17.1666 33.9944 17.3497 34.4367C17.5329 34.8789 17.8014 35.2808 18.1399 35.6193C18.4783 35.9578 18.8802 36.2263 19.3225 36.4094C19.7648 36.5926 20.2388 36.6868 20.7175 36.6866H21.2917C22.2571 36.6851 23.1823 36.3003 23.8641 35.6168C24.5459 34.9333 24.9284 34.007 24.9275 33.0416V23.9125C24.9275 23.4875 25.1525 23.0975 25.5275 22.8808L28.7883 21L31.0192 22.29Z" stroke="#BBBBBB" stroke-width="2" stroke-linecap="round" stroke-linejoin="round"/>
<path d="M21.9317 28.6475L24.9275 30.3783V33.0417C24.9284 34.0072 24.5458 34.9336 23.8638 35.6171C23.1819 36.3006 22.2564 36.6853 21.2908 36.6867H20.7167C20.238 36.6867 19.7641 36.5924 19.3219 36.4092C18.8797 36.226 18.478 35.9575 18.1396 35.619C17.8012 35.2805 17.5328 34.8787 17.3497 34.4365C17.1666 33.9943 17.0724 33.5203 17.0725 33.0417V30.3783L20.0683 28.6475C20.3531 28.4881 20.6741 28.4044 21.0004 28.4044C21.3268 28.4044 21.6469 28.4881 21.9317 28.6475ZM34.6642 20.1842L33.25 21L31.0192 19.71L33.4325 18.32C33.8474 18.0804 34.211 17.7613 34.5025 17.3811C34.7941 17.0008 35.0078 16.5668 35.1314 16.1039C35.2551 15.641 35.2863 15.1583 35.2233 14.6833C35.1603 14.2084 35.0043 13.7505 34.7642 13.3358L34.4808 12.8442C34.2415 12.43 33.923 12.0671 33.5434 11.776C33.1639 11.485 32.7307 11.2716 32.2686 11.148C31.8065 11.0245 31.3246 10.9931 30.8505 11.0558C30.3763 11.1185 29.9191 11.2739 29.505 11.5133L27.1417 12.8783L24.9275 14.16L21.5992 16.0817L21.5908 16.0733C21.2242 16.29 20.775 16.29 20.4092 16.0733L20.4008 16.0817L17.0725 14.16V11.6217L20.0683 13.3525C20.6425 13.6858 21.3583 13.6858 21.9325 13.3525L24.9283 11.6217L27.1417 10.3483L28.5233 9.54916C29.8314 8.79458 31.3854 8.58989 32.8442 8.98002C34.303 9.37016 35.5474 10.3232 36.3042 11.63L36.5292 12.0217L36.7533 12.4042C37.1277 13.0521 37.3707 13.7674 37.4683 14.5093C37.5659 15.2512 37.5163 16.0051 37.3223 16.7278C37.1282 17.4505 36.7936 18.1278 36.3375 18.7211C35.8814 19.3143 35.3127 19.8109 34.6642 20.1842Z" stroke="#BBBBBB" stroke-width="2" stroke-linecap="round" stroke-linejoin="round"/>
<path d="M25.5267 19.1192L28.7892 21L25.5267 22.8808C25.1525 23.0975 24.9275 23.4883 24.9275 23.9125V27.8492L21.5992 25.9267H21.5908C21.2242 25.71 20.775 25.71 20.4092 25.9267L20.4008 25.9183L17.0725 27.8408V23.9125C17.0725 23.4875 16.8475 23.0975 16.4725 22.8808L13.2117 21L16.4742 19.1192C16.8492 18.9025 17.0733 18.5117 17.0733 18.0875V14.1583L20.4017 16.0808L20.41 16.0725C20.7767 16.2892 21.2258 16.2892 21.5917 16.0725L21.6 16.0808L24.9283 14.1583V18.0867C24.9283 18.5117 25.1533 18.9025 25.5283 19.1183M33.4333 18.3208L31.0192 19.71L28.0733 18.0125C27.7902 17.8487 27.5552 17.6133 27.3916 17.33C27.2281 17.0467 27.1419 16.7254 27.1417 16.3983V12.8783L29.505 11.5133C29.9191 11.274 30.3764 11.1186 30.8506 11.0559C31.3248 10.9933 31.8067 11.0247 32.2688 11.1484C32.7309 11.2721 33.164 11.4855 33.5436 11.7767C33.9231 12.0678 34.2416 12.4308 34.4808 12.845L34.7642 13.3358C35.0044 13.7505 35.1605 14.2085 35.2236 14.6835C35.2867 15.1586 35.2555 15.6414 35.1319 16.1044C35.0082 16.5674 34.7944 17.0015 34.5028 17.3818C34.2112 17.7621 33.8484 18.0812 33.4333 18.3208ZM14.8583 12.8783V16.3983C14.8583 17.0642 14.5 17.6792 13.9267 18.0125L10.9808 19.71L8.56751 18.32C8.15259 18.0815 7.78877 17.7635 7.49683 17.3843C7.2049 17.005 6.99057 16.572 6.86612 16.1098C6.74167 15.6477 6.70953 15.1656 6.77154 14.691C6.83355 14.2165 6.98849 13.7588 7.22751 13.3442L7.51084 12.8525C7.99432 12.0141 8.79098 11.4021 9.72564 11.1509C10.6603 10.8998 11.6564 11.0302 12.495 11.5133L14.8583 12.8783ZM24.9275 30.3783V33.0417C24.9284 34.0072 24.5458 34.9336 23.8638 35.6171C23.1819 36.3006 22.2564 36.6853 21.2908 36.6867H20.7167C20.238 36.6867 19.7641 36.5924 19.3219 36.4092C18.8797 36.226 18.478 35.9575 18.1396 35.619C17.8012 35.2805 17.5328 34.8787 17.3497 34.4365C17.1666 33.9943 17.0724 33.5203 17.0725 33.0417V30.3783L20.0683 28.6475C20.3531 28.4881 20.6741 28.4044 21.0004 28.4044C21.3268 28.4044 21.6477 28.4881 21.9325 28.6475L24.9275 30.3783Z" stroke="#BBBBBB" stroke-width="2" stroke-linecap="round" stroke-linejoin="round"/>
<path d="M36.7533 29.5967L36.5283 29.9792L36.3033 30.3708C35.5464 31.6775 34.302 32.6304 32.8432 33.0203C31.3844 33.4103 29.8304 33.2055 28.5225 32.4508L27.1417 31.6517V29.1217L29.505 30.4867C30.3409 30.9685 31.3336 31.0998 32.266 30.8518C33.1984 30.6039 33.9947 29.9968 34.4808 29.1633L34.7642 28.6642C35.0043 28.2495 35.1603 27.7916 35.2233 27.3167C35.2863 26.8417 35.2551 26.359 35.1314 25.8961C35.0078 25.4332 34.794 24.9992 34.5025 24.6189C34.211 24.2387 33.8474 23.9196 33.4325 23.68L31.0192 22.29L28.7892 21L25.5267 19.1192C25.3449 19.015 25.1939 18.8648 25.0887 18.6837C24.9835 18.5026 24.9279 18.297 24.9275 18.0875V14.1583L27.1417 12.8775V16.3975C27.1417 17.0633 27.5 17.6783 28.0733 18.0117L31.0192 19.7092L33.25 21L34.665 21.8158C35.3135 22.1891 35.882 22.6865 36.338 23.2797C36.794 23.8728 37.1286 24.5501 37.3227 25.2727C37.5167 25.9953 37.5664 26.749 37.4688 27.4909C37.3713 28.2327 37.1284 28.948 36.7542 29.5958L36.7533 29.5967Z" stroke="#BBBBBB" stroke-width="2" stroke-linecap="round" stroke-linejoin="round"/>
<path d="M28.7892 21L25.5267 22.8808C25.1525 23.0975 24.9275 23.4883 24.9275 23.9125V27.8492L21.5992 25.9267H21.5908C21.2242 25.71 20.775 25.71 20.4092 25.9267L20.4008 25.9183L17.0725 27.8408V23.9125C17.0725 23.4875 16.8475 23.0975 16.4725 22.8808L13.2117 21L16.4742 19.1192C16.8492 18.9025 17.0733 18.5117 17.0733 18.0875V14.1583L20.4017 16.0808L20.41 16.0725C20.7767 16.2892 21.2258 16.2892 21.5917 16.0725L21.6 16.0808L24.9283 14.1583V18.0867C24.9283 18.5117 25.1533 18.9025 25.5283 19.1183L28.7892 21ZM33.4333 18.3208L31.0192 19.71L28.0733 18.0125C27.7902 17.8487 27.5552 17.6133 27.3916 17.33C27.2281 17.0467 27.1419 16.7254 27.1417 16.3983V12.8783L29.505 11.5133C29.9191 11.274 30.3764 11.1186 30.8506 11.0559C31.3248 10.9933 31.8067 11.0247 32.2688 11.1484C32.7309 11.2721 33.164 11.4855 33.5436 11.7767C33.9231 12.0678 34.2416 12.4308 34.4808 12.845L34.7642 13.3358C35.0044 13.7505 35.1605 14.2085 35.2236 14.6835C35.2867 15.1586 35.2555 15.6414 35.1318 16.1044C35.0082 16.5674 34.7944 17.0015 34.5028 17.3818C34.2112 17.7621 33.8484 18.0812 33.4333 18.3208Z" stroke="#BBBBBB" stroke-width="2" stroke-linecap="round" stroke-linejoin="round"/>
<path d="M21 21.625C21.3452 21.625 21.625 21.3452 21.625 21C21.625 20.6548 21.3452 20.375 21 20.375C20.6548 20.375 20.375 20.6548 20.375 21C20.375 21.3452 20.6548 21.625 21 21.625Z" fill="#BBBBBB"/>
</svg>
