<svg width="22" height="13" viewBox="0 0 22 13" fill="none" xmlns="http://www.w3.org/2000/svg">
<path d="M20.9597 0.473231L11.0005 11.0385L10.9176 10.9644L1.03624 0.468645C0.919094 0.369231 0.763205 0.314515 0.60165 0.316106C0.440098 0.317696 0.285593 0.375468 0.170929 0.477163C0.115574 0.528104 0.0719948 0.588289 0.0426769 0.654281C0.013361 0.720273 -0.00111771 0.790777 6.67572e-05 0.86177C-0.00186157 1.00725 0.0609093 1.14746 0.174595 1.25162L10.5261 12.1641C10.5867 12.2165 10.6591 12.2567 10.7385 12.2821C10.818 12.3076 10.9025 12.3176 10.9866 12.3115C11.0758 12.3198 11.166 12.3106 11.2508 12.2845C11.3357 12.2585 11.4131 12.2163 11.4779 12.1608L21.8389 1.23917C22.0552 1.03409 22.0582 0.686174 21.8206 0.466024C21.7039 0.367455 21.549 0.313133 21.3885 0.314477C21.2279 0.315822 21.0742 0.372726 20.9597 0.473231Z" fill="#4E38D7"/>
</svg>
